<?xml version="1.0" encoding="utf-8"?>
<!-- Generator: Adobe Illustrator 21.1.0, SVG Export Plug-In . SVG Version: 6.00 Build 0)  -->
<svg version="1.1" id="icon_farrow" xmlns="http://www.w3.org/2000/svg" xmlns:xlink="http://www.w3.org/1999/xlink" x="0px"
	 y="0px" viewBox="0 0 53.8 37.3" style="enable-background:new 0 0 53.8 37.3;" xml:space="preserve">
<path d="M50,2.8c0-0.6-0.4-1-1-1s-1,0.4-1,1H50z M1.2,33.8C0.7,33.7,0.1,34,0,34.5s0.2,1.1,0.7,1.2L1.2,33.8z M22.5,30.6
	c1.1,3.7,3.4,5.9,6.4,6.6c3,0.6,6.3-0.4,9.4-2.8C44.6,29.6,50,19,50,2.8h-2c0,15.8-5.3,25.7-10.9,30c-2.8,2.2-5.6,2.9-7.8,2.4
	c-2.2-0.5-4-2.1-4.9-5.2L22.5,30.6z M24.5,30c-0.5-1.7-1.1-3-1.7-3.9c-0.7-0.9-1.5-1.4-2.5-1.4c-0.9,0-1.8,0.6-2.5,1.1
	c-0.8,0.6-1.6,1.4-2.4,2.2c-3.4,3.3-7.7,7.3-14.1,5.8l-0.5,2c7.6,1.9,12.6-3.1,15.9-6.2c0.9-0.8,1.6-1.5,2.2-2
	c0.7-0.5,1.1-0.7,1.4-0.7c0.2,0,0.4,0,0.8,0.6s0.9,1.6,1.4,3.2L24.5,30z"/>
<path d="M44.6,9.4c-0.2,0-0.4,0-0.5-0.1c-0.5-0.3-0.6-0.9-0.3-1.4l4.4-7.4c0.3-0.5,0.9-0.6,1.4-0.3s0.6,0.9,0.3,1.4L45.5,9
	C45.2,9.3,44.9,9.4,44.6,9.4z"/>
<path d="M52.8,9.6c-0.4,0-0.7-0.2-0.9-0.5l-3.8-7.5c-0.3-0.5-0.1-1.1,0.4-1.3C49,0,49.6,0.2,49.8,0.7l3.8,7.5
	c0.3,0.5,0.1,1.1-0.4,1.3C53.1,9.5,53,9.6,52.8,9.6z"/>
</svg>
