<svg width="64" height="64" viewBox="0 0 64 64" fill="none" xmlns="http://www.w3.org/2000/svg">
<rect width="64" height="64" rx="5.56522" fill="url(#paint0_linear)"/>
<path d="M32.345 23.7216C33.8142 23.7216 35.0386 24.2113 36.0181 25.1908C37.0124 26.1703 37.5095 27.3872 37.5095 28.8416C37.5095 30.2811 37.0124 31.4981 36.0181 32.4924C35.0386 33.4719 33.8142 33.9616 32.345 33.9616H29.1617V39.3042H26.6017V23.7216H32.345ZM32.345 31.5574C33.1019 31.5574 33.7252 31.3051 34.2149 30.8005C34.7047 30.2811 34.9495 29.6281 34.9495 28.8416C34.9495 28.055 34.7047 27.4095 34.2149 26.9049C33.7252 26.3855 33.1019 26.1258 32.345 26.1258H29.1617V31.5574H32.345Z" fill="white"/>
<defs>
<linearGradient id="paint0_linear" x1="-0.455275" y1="-0.06664" x2="54.4649" y2="68.1451" gradientUnits="userSpaceOnUse">
<stop stop-color="#D6E9F5"/>
<stop offset="1" stop-color="#ADD2EB"/>
</linearGradient>
</defs>
</svg>
