<svg width="72" height="72" viewBox="0 0 72 72" fill="none" xmlns="http://www.w3.org/2000/svg">
<rect width="72" height="72" fill="url(#paint0_linear)"/>
<path d="M19.8754 13L16.9565 14.3454L17.4218 15.6907L18.1466 23.2403L19.5681 24.8309L20.9132 23.316L19.8754 13Z" fill="#EDF5FF"/>
<path d="M19.8754 13H13V15.6907H17.4218L19.8754 13Z" fill="#3B8378"/>
<path d="M24.1458 49.9703C23.1784 49.9703 22.3898 49.4327 22.0362 48.5321C21.6827 47.6316 21.8949 46.701 22.604 46.0428L24.3494 44.4228L22.5189 42.4507L20.7735 44.0707C19.2688 45.4673 18.7813 47.6045 19.5315 49.5154C20.2817 51.4263 22.0928 52.6611 24.1457 52.6611H29.7048V49.9703H24.1458Z" fill="#EDF5FF"/>
<path d="M29.7049 49.9702H41.6291V52.6609H29.7049V49.9702Z" fill="#D6E8FD"/>
<path d="M25.1916 54.4864C25.1916 56.9751 27.2162 58.9998 29.7049 58.9998V49.9731C27.2162 49.9731 25.1916 51.9978 25.1916 54.4864Z" fill="#3B8378"/>
<path d="M29.7049 49.9731V58.9998C32.1936 58.9998 34.2182 56.9751 34.2182 54.4864C34.2182 51.9978 32.1936 49.9731 29.7049 49.9731Z" fill="url(#paint1_linear)"/>
<path d="M41.568 58.9998C39.0793 58.9998 37.0547 56.9751 37.0547 54.4864C37.0547 51.9978 39.0793 49.9731 41.568 49.9731C44.0566 49.9731 46.0814 51.9978 46.0814 54.4864C46.0813 56.9751 44.0566 58.9998 41.568 58.9998Z" fill="#3B8378"/>
<path d="M18.1466 23.2402L18.7083 29.3129L29.7049 31.9068L31.9616 26.7388L29.7049 23.2402H18.1466Z" fill="url(#paint2_linear)"/>
<path d="M47.3586 29.3129L41.0446 23.2402H29.7049V31.9068L32.7526 32.6257L47.3586 29.3129Z" fill="#3B8378"/>
<path d="M18.7083 29.313L20.1391 44.782H29.7049L32.7123 37.0475L29.7049 29.313H18.7083Z" fill="url(#paint3_linear)"/>
<path d="M47.3586 29.313H29.7049V44.782H40.9372C44.3018 44.782 47.2268 42.3881 47.8922 39.09L49.4573 31.3314L47.3586 29.313Z" fill="#3B8378"/>
<path d="M39.3386 22.8308C39.3386 28.2514 43.7487 32.6615 49.1693 32.6615L52.8506 23.6674L49.1693 13C43.7487 13 39.3386 17.4101 39.3386 22.8308Z" fill="#5BA4D7"/>
<path d="M49.1693 13V32.6615C54.5899 32.6615 59 28.2514 59 22.8308C59 17.4101 54.5899 13 49.1693 13Z" fill="#5BA4D7"/>
<path d="M46.5955 18.9136V21.6092H47.9362V27.3043H49.1693L49.9005 23.1089L49.1693 18.9136H46.5955Z" fill="#EDF5FF"/>
<path d="M49.1693 18.9136H50.6318V27.3043H49.1693V18.9136Z" fill="#D6E8FD"/>
<defs>
<linearGradient id="paint0_linear" x1="-0.512184" y1="-0.07497" x2="61.273" y2="76.6632" gradientUnits="userSpaceOnUse">
<stop stop-color="#D6E9F5"/>
<stop offset="1" stop-color="#ADD2EB"/>
</linearGradient>
<linearGradient id="paint1_linear" x1="29.7049" y1="50.8667" x2="34.4726" y2="53.175" gradientUnits="userSpaceOnUse">
<stop stop-color="#479E91"/>
<stop offset="1" stop-color="#3F8D81"/>
</linearGradient>
<linearGradient id="paint2_linear" x1="18.1466" y1="24.0982" x2="23.4724" y2="32.3187" gradientUnits="userSpaceOnUse">
<stop stop-color="#479E91"/>
<stop offset="1" stop-color="#3F8D81"/>
</linearGradient>
<linearGradient id="paint3_linear" x1="18.7083" y1="30.8444" x2="29.0343" y2="39.8962" gradientUnits="userSpaceOnUse">
<stop stop-color="#479E91"/>
<stop offset="1" stop-color="#3F8D81"/>
</linearGradient>
</defs>
</svg>
