<svg width="16" height="16" viewBox="0 0 16 16" fill="none" xmlns="http://www.w3.org/2000/svg">
<g opacity="0.2">
<path d="M0 8.00016H16V14.0002C16 14.177 15.9157 14.3465 15.7657 14.4716C15.6157 14.5966 15.4122 14.6668 15.2 14.6668H0.8C0.587827 14.6668 0.384344 14.5966 0.234315 14.4716C0.0842854 14.3465 0 14.177 0 14.0002V8.00016ZM12 2.66683H15.2C15.4122 2.66683 15.6157 2.73707 15.7657 2.86209C15.9157 2.98712 16 3.15668 16 3.3335V6.66683H0V3.3335C0 3.15668 0.0842854 2.98712 0.234315 2.86209C0.384344 2.73707 0.587827 2.66683 0.8 2.66683H4V1.3335H5.6V2.66683H10.4V1.3335H12V2.66683Z" fill="#060607"/>
</g>
</svg>
