<svg width="161" height="16" viewBox="0 0 161 16" fill="none" xmlns="http://www.w3.org/2000/svg" >
<path fill-rule="evenodd" clip-rule="evenodd" d="M20.822 6.37352C20.651 8.81507 18.9816 10.8518 13.9233 10.8518H7.22092V15H0.748962V6.02188L7.22092 6.13526V6.85724H12.6366C13.4411 6.85724 13.868 6.6152 14.048 6.25485L20.822 6.37352ZM20.837 5.81365L14.1495 5.87206C14.1524 5.8361 14.1538 5.79958 14.1538 5.76258V5.72417C14.1538 5.09042 13.7697 4.62951 12.6366 4.62951H7.22092V5.93257L0.748962 5.98909V0.711766H13.9233C19.3198 0.711766 20.837 2.84348 20.837 5.51292V5.81365ZM21.6379 6.38782V7.43338C21.6379 10.2373 22.7517 15.2305 31.7395 15.2305H32.6229C41.4954 15.2305 42.7053 10.218 42.7053 7.43338V6.75688L36.195 6.64283V6.81883C36.195 8.47043 35.4268 10.3525 32.1812 10.3525H32.162C28.8588 10.3525 28.1482 8.47043 28.1482 6.81883V6.50187L21.6379 6.38782ZM28.1482 5.74979L21.6379 5.80665V0.711766H28.1482V5.74979ZM36.195 5.67952L42.7053 5.62266V0.711766H36.195V5.67952ZM44.07 6.78079C44.7805 8.21684 46.6255 9.30095 50.7555 9.41145L53.5978 9.48827C56.3056 9.5843 56.5745 10.0452 56.5745 10.6405V10.679C56.5745 11.2743 56.1136 11.8312 53.809 11.8312H53.7322C51.2164 11.8312 50.9284 10.7558 50.8707 10.0836H43.4578V10.2565C43.4578 12.1001 44.2836 15.2689 52.5992 15.2689H54.7693C62.6048 15.2689 64.1219 12.8299 64.1219 10.3525V10.0836C64.1219 8.78224 63.7173 7.8053 62.7805 7.10856L44.07 6.78079ZM52.1808 5.5399L43.7274 5.61373C43.7004 5.4038 43.6882 5.19047 43.6882 4.97519V4.80235C43.6882 2.28654 45.5895 0.462106 52.3687 0.462106H54.4812C61.8942 0.462106 63.6034 2.59382 63.6034 4.95598V5.09042H56.3056C56.248 4.57189 55.9792 3.7653 53.5594 3.7653H53.4634C51.2356 3.7653 50.9284 4.14939 50.9284 4.66791V4.68712C50.9284 5.08106 51.1782 5.37891 52.1808 5.5399ZM65.0769 7.14879V15H71.5489V9.75714H79.7492V15H86.2404V7.51954L65.0769 7.14879ZM86.2404 5.24244V0.711766H79.7492V5.29913L86.2404 5.24244ZM71.5489 5.37075L65.0769 5.42727V0.711766H71.5489V5.37075ZM87.4831 10.871H93.7246V15H87.4831V10.871ZM111.038 13.2908C110.539 13.7901 108.791 15.2689 104.355 15.2689H103.875C95.9435 15.2689 94.0999 11.2359 94.0999 8.08634V7.5102C94.0999 4.13019 96.0587 0.442902 104.701 0.442902H105.373C114.86 0.442902 115.974 3.99575 115.974 6.03144V6.05065H109.31C109.214 5.68576 108.715 4.49507 105.181 4.49507C101.878 4.49507 100.783 5.91621 100.783 7.70224V7.87508C100.783 9.66111 101.955 11.2743 105.123 11.2743C108.388 11.2743 109.291 10.1796 109.291 9.77634H104.931V6.91485H116.07V15H111.826C111.73 14.5583 111.365 13.7133 111.038 13.2908ZM127.369 15.2305C118.381 15.2305 117.267 10.2373 117.267 7.43338V0.711766H123.777V6.81883C123.777 8.47043 124.488 10.3525 127.791 10.3525H127.81C131.056 10.3525 131.824 8.47043 131.824 6.81883V0.711766H138.335V7.43338C138.335 10.218 137.125 15.2305 128.252 15.2305H127.369ZM139.682 15V0.711766H146.961L154.393 7.9327V0.711766H160.846V15H154.297L146.135 7.18372V15H139.682Z" fill="#323441"/>
</svg>
