<svg width="24" height="24" viewBox="0 0 24 24" fill="none" xmlns="http://www.w3.org/2000/svg">
<path d="M14.1455 9.84775L10.2908 13.7032C10.2257 13.7661 10.1738 13.8413 10.1381 13.9244C10.1023 14.0076 10.0835 14.097 10.0828 14.1875C10.082 14.278 10.0992 14.3677 10.1335 14.4515C10.1677 14.5352 10.2184 14.6113 10.2823 14.6753C10.3463 14.7393 10.4224 14.7899 10.5062 14.8242C10.5899 14.8585 10.6797 14.8757 10.7702 14.8749C10.8607 14.8741 10.9501 14.8553 11.0333 14.8196C11.1164 14.7839 11.1916 14.732 11.2545 14.6669L15.1099 10.8121C15.4934 10.4287 15.7088 9.90856 15.7088 9.36625C15.7088 8.82394 15.4934 8.30384 15.1099 7.92037C14.7264 7.53691 14.2063 7.32147 13.664 7.32147C13.1217 7.32147 12.6016 7.53691 12.2182 7.92037L8.36273 11.7758C8.03974 12.0908 7.7825 12.4667 7.60593 12.8819C7.42936 13.297 7.33699 13.7431 7.33416 14.1942C7.33133 14.6453 7.41811 15.0925 7.58946 15.5099C7.76081 15.9272 8.01332 16.3063 8.33235 16.6253C8.65137 16.9443 9.03056 17.1968 9.44791 17.368C9.86526 17.5393 10.3125 17.6261 10.7636 17.6232C11.2147 17.6203 11.6608 17.5278 12.0759 17.3512C12.491 17.1746 12.8669 16.9173 13.1819 16.5942L17.0373 12.7395L18.001 13.7032L14.1455 17.5586C13.7025 18.0016 13.1766 18.3531 12.5977 18.5928C12.0189 18.8326 11.3985 18.956 10.772 18.956C10.1454 18.956 9.52502 18.8326 8.94618 18.5928C8.36734 18.3531 7.84139 18.0016 7.39836 17.5586C6.95534 17.1156 6.60391 16.5896 6.36415 16.0108C6.12438 15.432 6.00098 14.8116 6.00098 14.185C6.00098 13.5585 6.12438 12.9381 6.36415 12.3593C6.60391 11.7804 6.95534 11.2545 7.39836 10.8114L11.2545 6.95669C11.8972 6.33595 12.758 5.99248 13.6514 6.00024C14.5449 6.00801 15.3996 6.36639 16.0314 6.9982C16.6632 7.63001 17.0216 8.48469 17.0294 9.37817C17.0371 10.2716 16.6937 11.1324 16.0729 11.7751L12.2182 15.6319C12.0282 15.8218 11.8028 15.9724 11.5547 16.0751C11.3065 16.1779 11.0406 16.2308 10.7721 16.2307C10.5035 16.2307 10.2376 16.1778 9.98948 16.075C9.74138 15.9722 9.51595 15.8215 9.32608 15.6316C9.1362 15.4417 8.9856 15.2162 8.88285 14.9681C8.78011 14.72 8.72725 14.454 8.72728 14.1855C8.72731 13.9169 8.78024 13.651 8.88304 13.4029C8.98584 13.1548 9.1365 12.9294 9.32642 12.7395L13.1819 8.88406L14.1455 9.84775Z" fill="#323441"/>
</svg>
