<svg width="161" height="16" fill="none" xmlns="http://www.w3.org/2000/svg"><path fill-rule="evenodd" clip-rule="evenodd" d="M20.822 6.373c-.171 2.442-1.84 4.479-6.899 4.479H7.221V15H.749V6.022l6.472.113v.722h5.416c.804 0 1.231-.242 1.411-.602l6.774.118zm.015-.56l-6.687.059a1.41 1.41 0 00.004-.11v-.038c0-.634-.384-1.095-1.517-1.095H7.22v1.304l-6.472.056V.712h13.174c5.397 0 6.914 2.131 6.914 4.8v.302zm.8.575v1.045c0 2.804 1.115 7.797 10.102 7.797h.884c8.873 0 10.082-5.012 10.082-7.797v-.676l-6.51-.114v.176c0 1.651-.768 3.533-4.014 3.533h-.019c-3.303 0-4.014-1.882-4.014-3.533v-.317l-6.51-.114zm6.511-.638l-6.51.057V.712h6.51V5.75zm8.047-.07l6.51-.057V.712h-6.51v4.967zm7.875 1.1c.71 1.437 2.556 2.52 6.685 2.631l2.843.077c2.708.096 2.977.557 2.977 1.152v.039c0 .595-.461 1.152-2.766 1.152h-.077c-2.515 0-2.804-1.075-2.861-1.747h-7.413v.172c0 1.844.826 5.013 9.141 5.013h2.17c7.836 0 9.353-2.44 9.353-4.917v-.268c0-1.302-.405-2.279-1.341-2.975L44.07 6.78zm8.11-1.24l-8.453.074a4.988 4.988 0 01-.039-.639v-.173c0-2.515 1.901-4.34 8.68-4.34h2.113c7.413 0 9.122 2.132 9.122 4.494v.134h-7.297c-.058-.518-.327-1.325-2.747-1.325h-.096c-2.227 0-2.535.384-2.535.903v.02c0 .393.25.69 1.253.852zm12.897 1.609V15h6.472V9.757h8.2V15h6.491V7.52l-21.163-.371zM86.24 5.242V.712h-6.49v4.587l6.49-.057zm-14.691.129l-6.472.056V.712h6.472V5.37zm15.934 5.5h6.242V15h-6.242v-4.129zm23.555 2.42c-.499.5-2.247 1.978-6.683 1.978h-.48c-7.931 0-9.775-4.033-9.775-7.183V7.51c0-3.38 1.959-7.067 10.6-7.067h.672c9.487 0 10.601 3.553 10.601 5.588v.02h-6.664c-.096-.365-.595-1.556-4.129-1.556-3.303 0-4.398 1.421-4.398 3.207v.173c0 1.786 1.172 3.4 4.34 3.4 3.265 0 4.168-1.095 4.168-1.499h-4.36V6.915h11.139V15h-4.244c-.096-.442-.461-1.287-.788-1.71zm16.331 1.94c-8.988 0-10.102-4.994-10.102-7.798V.712h6.51v6.107c0 1.651.711 3.533 4.014 3.533h.019c3.246 0 4.014-1.882 4.014-3.533V.712h6.511v6.721c0 2.785-1.21 7.797-10.083 7.797h-.883zM139.682 15V.712h7.279l7.432 7.22V.713h6.453V15h-6.549l-8.162-7.816V15h-6.453z" fill="#323441"/></svg>