<svg width="116" height="18" fill="none" xmlns="http://www.w3.org/2000/svg"><path d="M7.046 0c1.348 0 2.538.258 3.572.773 1.034.515 1.833 1.252 2.4 2.21.565.958.848 2.07.849 3.335 0 1.266-.283 2.373-.85 3.322-.565.948-1.365 1.68-2.4 2.196-1.036.516-2.226.773-3.57.772H4.043v4.772H0V9.218h6.669c.952 0 1.707-.262 2.264-.787.558-.524.837-1.229.836-2.114 0-.905-.279-1.619-.836-2.143-.556-.524-1.311-.786-2.264-.786H0V0h7.046zm21.837 3.442V17.38h-3.37l-.35-1.68a5.319 5.319 0 01-1.699 1.355c-.647.325-1.438.488-2.372.488-1.618 0-2.939-.502-3.963-1.505-1.025-1.004-1.537-2.68-1.537-5.03V3.442h3.802v7.104c0 1.264.22 2.22.66 2.861.44.643 1.119.963 2.035.963.952 0 1.689-.357 2.21-1.071.523-.714.784-1.713.783-2.996v-6.86h3.8zm2.237 0h11.727v2.603l-6.928 8.108h7.252v3.227H30.797v-2.604l6.928-8.108H31.12V3.442zm14.1 0h11.726v2.603l-6.93 8.108h7.252v3.227H44.896v-2.604l6.928-8.108H45.22V3.442zM59.183 0h3.802v17.38h-3.8V0h-.002zm5.634 10.438c0-1.446.292-2.707.877-3.782a6.17 6.17 0 012.453-2.495c1.05-.586 2.268-.88 3.653-.88 1.402 0 2.637.276 3.706.828a6.141 6.141 0 012.507 2.332c.603 1.003.919 2.183.93 3.538a6.73 6.73 0 01-.107 1.302H68.78v.108a3.37 3.37 0 00.97 2.386c.557.578 1.32.867 2.292.868.773 0 1.415-.167 1.928-.502.51-.333.85-.827 1.01-1.479h3.749a5.508 5.508 0 01-1.052 2.494c-.555.74-1.295 1.326-2.21 1.75-.915.423-1.968.637-3.154.637-1.546 0-2.88-.29-4.004-.868a6.092 6.092 0 01-2.588-2.479c-.6-1.074-.902-2.326-.903-3.755l-.001-.003zm10.326-1.654c-.126-.85-.472-1.505-1.038-1.966-.567-.461-1.281-.692-2.144-.691-.826 0-1.523.24-2.09.72-.566.48-.903 1.126-1.01 1.939l6.282-.002zM82.505.573h1.237c.33-.007.655.07.945.222.267.142.486.357.63.619a1.963 1.963 0 010 1.812 1.551 1.551 0 01-.63.619c-.29.152-.615.228-.945.222h-1.237V.573zm1.237 2.87c.323 0 .573-.103.751-.307.178-.204.267-.477.268-.816 0-.34-.09-.611-.268-.816-.178-.205-.428-.307-.75-.307h-.474v2.246h.473zM86.18.573h.764v3.494h-.764V.573zm1.399 1.747c0-.356.071-.668.213-.936a1.5 1.5 0 01.612-.621c.267-.147.58-.22.938-.22.262-.004.522.05.759.16a1.38 1.38 0 01.794 1.113h-.754a.828.828 0 00-.285-.467.824.824 0 00-.535-.172.91.91 0 00-.514.145c-.15.1-.266.24-.336.404-.081.188-.121.39-.117.594 0 .343.085.619.257.828.17.21.408.315.71.315a.998.998 0 00.586-.177.732.732 0 00.305-.522v-.045h-.886v-.594h1.598v1.942h-.53l-.081-.434a1.18 1.18 0 01-.423.334 1.39 1.39 0 01-.616.13 1.762 1.762 0 01-.889-.22 1.502 1.502 0 01-.595-.624 1.988 1.988 0 01-.212-.933zM91.706.573h.764v3.494h-.764V.573zm1.346 0h2.821v.644h-1.028v2.85h-.764v-2.85h-1.029V.573zm2.616 3.494h.79l.274-.764h1.355l.275.764h.82L97.887.573h-.916l-1.306 3.494h.002zm1.27-1.366l.468-1.328.474 1.328h-.942zm2.742 1.367V.573h.764v2.85h1.416v.644l-2.18.001zM83.956 5.576a1.51 1.51 0 01.675.143c.189.088.346.23.453.406a1.253 1.253 0 010 1.226 1.063 1.063 0 01-.453.404c-.21.098-.442.147-.675.142h-.687V9.07h-.764V5.574l1.451.002zm-.687 1.697h.616c.18 0 .323-.048.427-.145a.507.507 0 00.158-.389.508.508 0 00-.157-.394.608.608 0 00-.428-.145h-.616v1.073zm4.025-1.699a1.58 1.58 0 01.685.143c.191.088.352.23.461.407.111.185.168.398.163.613a1.048 1.048 0 01-.612.983l.703 1.348h-.845l-.595-1.173h-.647v1.173h-.764V5.574h1.451zm-.687 1.698h.626a.62.62 0 00.43-.145.504.504 0 00.162-.388.505.505 0 00-.16-.394.618.618 0 00-.43-.145h-.627v1.073l-.001-.001zm6.017.05a1.86 1.86 0 01-.224.91 1.62 1.62 0 01-.627.637 1.941 1.941 0 01-1.833 0 1.621 1.621 0 01-.626-.636 1.967 1.967 0 010-1.822 1.62 1.62 0 01.626-.637 1.941 1.941 0 011.833 0c.266.15.483.371.627.637.151.28.228.593.224.91zm-2.755 0c-.004.202.038.403.122.589a.964.964 0 00.347.406.977.977 0 001.033 0 .964.964 0 00.346-.406 1.48 1.48 0 000-1.178.964.964 0 00-.346-.407.977.977 0 00-1.033 0 .964.964 0 00-.347.407 1.364 1.364 0 00-.122.589zm3.39-1.748h1.237c.329-.006.654.07.944.223.267.141.487.357.631.619a1.963 1.963 0 010 1.812 1.551 1.551 0 01-.63.618c-.29.153-.616.23-.945.222h-1.238V5.574zm1.237 2.87c.322 0 .573-.102.751-.306.178-.205.267-.477.267-.816 0-.34-.089-.612-.267-.817-.178-.204-.428-.306-.751-.307h-.472v2.247h.472zm3.175-2.87v2.027c0 .283.056.496.168.64.112.144.29.215.53.214.242 0 .418-.071.53-.214.113-.143.17-.357.172-.64V5.574h.763v1.987c0 .5-.124.88-.374 1.143s-.613.394-1.09.394c-.479 0-.842-.131-1.09-.394-.248-.263-.372-.644-.372-1.143V5.574h.763zm2.779 1.748c0-.357.071-.669.211-.936.135-.262.346-.478.606-.622.263-.146.573-.22.93-.22.258-.003.515.051.748.16a1.365 1.365 0 01.779 1.119h-.763a.815.815 0 00-.278-.472.808.808 0 00-.527-.172.818.818 0 00-.677.314c-.166.21-.249.486-.249.829 0 .34.083.615.249.826a.818.818 0 00.677.317.808.808 0 00.527-.172.815.815 0 00.278-.472h.763a1.364 1.364 0 01-.779 1.118 1.69 1.69 0 01-.748.16c-.356 0-.666-.073-.929-.22a1.487 1.487 0 01-.606-.62 1.973 1.973 0 01-.211-.936l-.001-.001zm3.532-1.748h2.821v.645h-1.028v2.85h-.764V6.22h-1.028v-.645h-.001zm3.41 0h.764v3.494h-.764V5.574zm4.932 1.748a1.86 1.86 0 01-.223.91 1.619 1.619 0 01-.627.637 1.94 1.94 0 01-1.833 0 1.623 1.623 0 01-.626-.636 1.97 1.97 0 010-1.822c.144-.266.361-.486.626-.637a1.944 1.944 0 011.833 0c.266.15.483.371.627.637.151.28.228.593.223.91zm-2.754 0a1.36 1.36 0 00.122.589.972.972 0 00.347.406.973.973 0 001.033 0 .964.964 0 00.346-.406 1.476 1.476 0 000-1.178.963.963 0 00-.346-.407.977.977 0 00-1.033 0 .957.957 0 00-.347.407 1.36 1.36 0 00-.122.589zm3.389 1.746V5.574h.694l1.512 2.202V5.574h.753v3.494h-.697l-1.512-2.2v2.2h-.75z" opacity=".2" fill-rule="evenodd" clip-rule="evenodd" fill="#3B8378"/></svg>