<svg width="24" height="24" viewBox="0 0 24 24" fill="none" xmlns="http://www.w3.org/2000/svg">
<g opacity="0.4">
<path d="M4 12.8097H8.43482C8.57337 15.374 9.39073 17.8554 10.8032 20C9.03395 19.7221 7.40664 18.8657 6.17572 17.5648C4.94481 16.2638 4.17969 14.5917 4 12.8097ZM4 11.1903C4.17969 9.40834 4.94481 7.73618 6.17572 6.43523C7.40664 5.13429 9.03395 4.27791 10.8032 4C9.39073 6.14462 8.57337 8.62603 8.43482 11.1903H4ZM20.1134 11.1903H15.6785C15.54 8.62603 14.7226 6.14462 13.3101 4C15.0794 4.27791 16.7067 5.13429 17.9376 6.43523C19.1686 7.73618 19.9337 9.40834 20.1134 11.1903ZM20.1134 12.8097C19.9337 14.5917 19.1686 16.2638 17.9376 17.5648C16.7067 18.8657 15.0794 19.7221 13.3101 20C14.7226 17.8554 15.54 15.374 15.6785 12.8097H20.1142H20.1134ZM10.0567 12.8097H14.0567C13.9234 14.9955 13.2351 17.1113 12.0567 18.9571C10.8783 17.1113 10.19 14.9955 10.0567 12.8097ZM10.0567 11.1903C10.19 9.00447 10.8783 6.88872 12.0567 5.04292C13.2351 6.88872 13.9234 9.00447 14.0567 11.1903H10.0567Z" fill="#F2F2F2"/>
</g>
</svg>
