<svg width="105" height="91" viewBox="0 0 105 91" fill="none" xmlns="http://www.w3.org/2000/svg">
<g clip-path="url(#clip0)" filter="url(#filter0_d)">
<path d="M75.2548 8.82251H17.4916C13.3542 8.82251 10 12.1767 10 16.3143V49.6152C10 53.7528 13.3542 57.1068 17.4916 57.1068H20.6487C21.6198 57.1068 22.5172 57.6241 23.0038 58.4643L31.3159 72.8152C32.1545 74.2631 34.2448 74.2631 35.0833 72.8152L43.3954 58.4643C43.8821 57.6241 44.7794 57.1068 45.7505 57.1068H75.2544C79.392 57.1068 82.7461 53.7527 82.7461 49.6152V16.3143C82.7466 12.1767 79.3924 8.82251 75.2548 8.82251Z" fill="url(#paint0_linear)"/>
<path d="M32.5757 58.4643L27.7898 66.7271L31.316 72.8152C32.1545 74.263 34.2448 74.263 35.0834 72.8152L43.3956 58.4643C43.8822 57.6241 44.7797 57.1068 45.7507 57.1068H34.9308C33.9598 57.1068 33.0623 57.6241 32.5757 58.4643Z" fill="#A9D0EA"/>
<path d="M75.2547 8.82251H64.4348C68.5724 8.82251 71.9264 12.1767 71.9264 16.3143V49.6152C71.9264 53.7528 68.5723 57.1068 64.4348 57.1068H75.2547C79.3923 57.1068 82.7463 53.7527 82.7463 49.6152V16.3143C82.7465 12.1767 79.3923 8.82251 75.2547 8.82251Z" fill="#A9D0EA"/>
<path d="M94.9068 74.6858L90.3274 64.313C90.052 63.6893 90.0351 62.9836 90.2731 62.3447C91.0267 60.3228 91.4225 58.1269 91.3818 55.8331C91.2118 46.2666 83.3652 38.4999 73.7974 38.4236C63.8884 38.3444 55.8403 46.3936 55.921 56.3029C56.0004 66.0419 64.0417 73.9559 73.7808 73.8868C76.1957 73.8697 78.4955 73.3692 80.5889 72.4782C81.1697 72.231 81.8209 72.2072 82.4199 72.4063L93.6017 76.1212C94.4752 76.4111 95.2785 75.5277 94.9068 74.6858Z" fill="url(#paint1_linear)"/>
<path d="M94.9069 74.686L90.3275 64.3131C90.0523 63.6894 90.0352 62.9837 90.2733 62.3449C91.0268 60.3229 91.4227 58.1271 91.3819 55.8332C91.2119 46.2667 83.3653 38.5 73.7975 38.4237C73.0652 38.4178 72.3434 38.4575 71.634 38.5379C74.0391 39.8341 76.1759 41.7026 77.8149 44.1014C83.4057 52.2835 81.2106 63.4523 72.9397 68.9101C70.5375 70.4952 67.8766 71.415 65.1812 71.7139C67.7395 73.1173 70.6734 73.9092 73.7809 73.8871C76.1958 73.87 78.4956 73.3695 80.5892 72.4784C81.17 72.2313 81.8212 72.2075 82.4202 72.4066L93.602 76.1215C94.4753 76.4112 95.2786 75.5278 94.9069 74.686Z" fill="#3B8378"/>
<path d="M73.1302 54.242C72.5542 54.806 71.8342 55.088 70.9702 55.088C70.1062 55.088 69.3802 54.8 68.7922 54.224C68.2162 53.648 67.9282 52.946 67.9282 52.118C67.9282 51.29 68.2162 50.588 68.7922 50.012C69.3802 49.436 70.1062 49.148 70.9702 49.148C71.8342 49.148 72.5542 49.436 73.1302 50.012C73.7062 50.576 73.9942 51.278 73.9942 52.118C73.9942 52.958 73.7062 53.666 73.1302 54.242ZM69.2062 60.092L77.4142 50.966L78.5122 51.578L70.2862 60.722L69.2062 60.092ZM70.1422 52.946C70.3582 53.162 70.6282 53.27 70.9522 53.27C71.2762 53.27 71.5462 53.162 71.7622 52.946C71.9782 52.718 72.0862 52.442 72.0862 52.118C72.0862 51.794 71.9782 51.524 71.7622 51.308C71.5462 51.092 71.2762 50.984 70.9522 50.984C70.6282 50.984 70.3582 51.092 70.1422 51.308C69.9382 51.524 69.8362 51.794 69.8362 52.118C69.8362 52.442 69.9382 52.718 70.1422 52.946ZM79.2142 61.352C78.6382 61.928 77.9182 62.216 77.0542 62.216C76.1902 62.216 75.4702 61.928 74.8942 61.352C74.3182 60.776 74.0302 60.074 74.0302 59.246C74.0302 58.418 74.3182 57.716 74.8942 57.14C75.4702 56.564 76.1902 56.276 77.0542 56.276C77.9182 56.276 78.6382 56.564 79.2142 57.14C79.7902 57.716 80.0782 58.418 80.0782 59.246C80.0782 60.074 79.7902 60.776 79.2142 61.352ZM76.2442 60.074C76.4602 60.29 76.7302 60.398 77.0542 60.398C77.3782 60.398 77.6422 60.284 77.8462 60.056C78.0622 59.828 78.1702 59.558 78.1702 59.246C78.1702 58.922 78.0622 58.652 77.8462 58.436C77.6422 58.208 77.3782 58.094 77.0542 58.094C76.7302 58.094 76.4602 58.208 76.2442 58.436C76.0402 58.652 75.9382 58.922 75.9382 59.246C75.9382 59.57 76.0402 59.846 76.2442 60.074Z" fill="white"/>
<path d="M74.8492 21.7232H17.8974C17.1888 21.7232 16.6147 21.149 16.6147 20.4406C16.6147 19.7322 17.189 19.158 17.8974 19.158H74.849C75.5576 19.158 76.1317 19.7322 76.1317 20.4406C76.1318 21.1488 75.5576 21.7232 74.8492 21.7232Z" fill="#F0F7FF"/>
<path d="M74.8492 32.3421H17.8974C17.1888 32.3421 16.6147 31.7679 16.6147 31.0595C16.6147 30.3511 17.189 29.7769 17.8974 29.7769H74.849C75.5576 29.7769 76.1317 30.3511 76.1317 31.0595C76.1318 31.7679 75.5576 32.3421 74.8492 32.3421Z" fill="#F0F7FF"/>
<path d="M52.1011 42.9611H17.8974C17.1888 42.9611 16.6147 42.3869 16.6147 41.6785C16.6147 40.9701 17.189 40.3959 17.8974 40.3959H52.1009C52.8095 40.3959 53.3836 40.9701 53.3836 41.6785C53.3837 42.3869 52.8095 42.9611 52.1011 42.9611Z" fill="#F0F7FF"/>
</g>
<defs>
<filter id="filter0_d" x="0" y="-6" width="105" height="105" filterUnits="userSpaceOnUse" color-interpolation-filters="sRGB">
<feFlood flood-opacity="0" result="BackgroundImageFix"/>
<feColorMatrix in="SourceAlpha" type="matrix" values="0 0 0 0 0 0 0 0 0 0 0 0 0 0 0 0 0 0 127 0"/>
<feOffset dy="4"/>
<feGaussianBlur stdDeviation="5"/>
<feColorMatrix type="matrix" values="0 0 0 0 0.439216 0 0 0 0 0.435294 0 0 0 0 0.513726 0 0 0 0.2 0"/>
<feBlend mode="normal" in2="BackgroundImageFix" result="effect1_dropShadow"/>
<feBlend mode="normal" in="SourceGraphic" in2="effect1_dropShadow" result="shape"/>
</filter>
<linearGradient id="paint0_linear" x1="9.48251" y1="8.75475" x2="63.7002" y2="84.0279" gradientUnits="userSpaceOnUse">
<stop stop-color="#D6E9F5"/>
<stop offset="1" stop-color="#ADD2EB"/>
</linearGradient>
<linearGradient id="paint1_linear" x1="55.9204" y1="42.1605" x2="81.3415" y2="67.6398" gradientUnits="userSpaceOnUse">
<stop stop-color="#479E91"/>
<stop offset="1" stop-color="#3F8D81"/>
</linearGradient>
<clipPath id="clip0">
<rect width="85" height="85" fill="white" transform="translate(10)"/>
</clipPath>
</defs>
</svg>
