<svg width="85" height="71" viewBox="0 0 85 71" fill="none" xmlns="http://www.w3.org/2000/svg">
<path d="M68.6911 46.5928C72.4502 46.5928 75.4974 43.4744 75.4974 39.6275V7.09706C75.4974 3.25015 72.45 0.131714 68.6911 0.131714H38.9896C35.2305 0.131714 32.1831 3.1791 32.1831 6.93819V38.7262C32.1831 42.4853 35.2305 45.5325 38.9896 45.5325H64.5037C65.069 45.5325 65.6127 45.7495 66.0226 46.1386L66.1112 46.2228C66.1116 46.2226 68.1575 46.5928 68.6911 46.5928Z" fill="url(#paint0_linear)"/>
<path d="M78.1936 0.131714H67.3631C71.1222 0.131714 74.1694 3.1791 74.1694 6.93802V38.726C74.1694 42.4851 71.122 45.5325 67.3631 45.5325C66.8295 45.5325 66.3721 45.8121 66.1113 46.2228L77.0652 56.621C77.5812 57.1109 78.4229 56.6567 78.2969 55.9565L76.62 46.6448C76.5155 46.0652 76.9609 45.5325 77.5498 45.5325H78.1938C81.9529 45.5325 85.0001 42.4851 85.0001 38.726V6.93802C84.9999 3.17893 81.9525 0.131714 78.1936 0.131714Z" fill="#A9D0EA"/>
<path d="M42.3104 11.5845H7.66511C3.43188 11.5845 0 15.0163 0 19.2496V50.4849C0 54.7183 3.43171 58.15 7.66511 58.15H8.39027C9.05333 58.15 9.55503 58.75 9.43749 59.4026L9.33423 59.976L19.0918 59.9759L19.9742 59.1836C20.7154 58.5181 21.6765 58.15 22.6728 58.15H23.0821H24.4103H42.3102C46.5436 58.15 49.9754 54.7182 49.9754 50.4849V19.2496C49.9755 15.0163 46.5437 11.5845 42.3104 11.5845Z" fill="url(#paint1_linear)"/>
<path d="M10.5386 58.8327L9.33433 59.9759L7.549 69.889C7.40689 70.6776 8.35484 71.1891 8.93606 70.6374L21.3718 58.8326C21.8335 58.3943 22.4457 58.1499 23.0822 58.1499H12.2491C11.6126 58.1502 11.0001 58.3944 10.5386 58.8327Z" fill="#3B8378"/>
<path d="M51.8152 11.5845H40.9822C45.2156 11.5845 48.6473 15.0163 48.6473 19.2496V50.4849C48.6473 54.7183 45.2154 58.15 40.9822 58.15H51.8152C56.0486 58.15 59.4803 54.7183 59.4803 50.4849V19.2496C59.4805 15.0163 56.0486 11.5845 51.8152 11.5845Z" fill="#3B8378"/>
<path d="M36.8743 21.3354C34.4098 21.3354 32.1692 22.3257 30.499 23.9427C30.0738 24.3543 29.4064 24.3543 28.9812 23.9427C27.311 22.3257 25.0704 21.3354 22.6059 21.3354C17.4407 21.3354 13.2534 25.6807 13.2534 31.0409C13.2534 40.0379 23.6626 46.4163 27.939 48.6571C29.0671 49.2483 30.4131 49.2483 31.5412 48.6571C35.8176 46.4164 46.2268 40.0379 46.2268 31.0409C46.2268 25.6806 42.0395 21.3354 36.8743 21.3354Z" fill="#F0F7FF"/>
<defs>
<linearGradient id="paint0_linear" x1="31.875" y1="0.0833362" x2="72.25" y2="46.8333" gradientUnits="userSpaceOnUse">
<stop stop-color="#D6E9F5"/>
<stop offset="1" stop-color="#ADD2EB"/>
</linearGradient>
<linearGradient id="paint1_linear" x1="-9.22226e-07" y1="16.375" x2="32.5833" y2="48.9584" gradientUnits="userSpaceOnUse">
<stop stop-color="#479E91"/>
<stop offset="1" stop-color="#3F8D81"/>
</linearGradient>
</defs>
</svg>
