<svg width="73" height="85" viewBox="0 0 73 85" fill="none" xmlns="http://www.w3.org/2000/svg">
<path d="M46.3822 85C48.8153 85 50.7879 83.0276 50.7879 80.5943V4.40572C50.7879 1.97243 48.8153 0 46.3822 0H4.52315C2.09003 0 0.117432 1.97243 0.117432 4.40572V80.5943C0.117432 83.0274 2.08986 85 4.52315 85H46.3822Z" fill="url(#paint0_linear)"/>
<path d="M56.22 0H45.5105C47.9436 0 49.9162 1.97243 49.9162 4.40572V80.5944C49.9162 83.0276 47.9438 85.0002 45.5105 85.0002H56.22C58.6531 85.0002 60.6257 83.0277 60.6257 80.5944V4.40572C60.6257 1.97243 58.6531 0 56.22 0V0Z" fill="#A9D0EA"/>
<path d="M50.7878 7.01379H9.58307C8.22904 7.01379 7.13135 8.11149 7.13135 9.46551V69.727C7.13135 71.081 8.22904 72.1787 9.58307 72.1787H50.7878V7.01379Z" fill="#FDFDFD"/>
<path d="M49.9162 72.179H51.16C52.514 72.179 53.6117 71.0813 53.6117 69.7272V14.7975H49.916V72.179H49.9162Z" fill="#D0E4F2"/>
<path d="M50.7878 7.01379H9.58307C8.22904 7.01379 7.13135 8.11149 7.13135 9.46551V14.7974H50.7878V7.01379Z" fill="#429487"/>
<path d="M53.612 14.7974V9.46551C53.612 8.11149 52.5143 7.01379 51.1603 7.01379H49.9165V14.7974H53.612Z" fill="#3B8378"/>
<path d="M62.6871 49.5672V27.3099C62.6871 24.838 60.6833 22.8342 58.2115 22.834H31.4264C28.9544 22.834 26.9504 24.838 26.9504 27.3099V49.5672C26.9504 52.0197 28.9232 54.0106 31.3684 54.0418V64.4408C31.3684 65.0931 32.1916 65.379 32.5958 64.8672L40.6075 54.7243C40.9472 54.2943 41.465 54.0433 42.013 54.0433H58.2118C60.6835 54.0428 62.6871 52.039 62.6871 49.5672Z" fill="url(#paint1_linear)"/>
<path d="M68.4063 22.834H57.5837C60.0557 22.834 62.0597 24.838 62.0597 27.3099V49.5671C62.0597 52.0391 60.0557 54.0433 57.5837 54.0433H68.4063C70.8783 54.0433 72.8822 52.0393 72.8822 49.5671V27.3099C72.8824 24.838 70.8784 22.834 68.4063 22.834Z" fill="#3B8378"/>
<path d="M31.3682 64.4408C31.3682 65.0931 32.1913 65.379 32.5955 64.8672L40.6073 54.7243C40.9469 54.2943 41.4647 54.0435 42.0128 54.0435H31.3682V64.4408Z" fill="#3B8378"/>
<path d="M32.4815 80.2061H28.2619C27.5535 80.2061 26.9792 79.6319 26.9792 78.9235C26.9792 78.2151 27.5535 77.6409 28.2619 77.6409H32.4815C33.1899 77.6409 33.7641 78.2151 33.7641 78.9235C33.7641 79.6319 33.1899 80.2061 32.4815 80.2061Z" fill="white"/>
<defs>
<linearGradient id="paint0_linear" x1="-0.243021" y1="-0.0885062" x2="71.1676" y2="52.7836" gradientUnits="userSpaceOnUse">
<stop stop-color="#D6E9F5"/>
<stop offset="1" stop-color="#ADD2EB"/>
</linearGradient>
<linearGradient id="paint1_linear" x1="26.9504" y1="27.0211" x2="54.8652" y2="49.8594" gradientUnits="userSpaceOnUse">
<stop stop-color="#479E91"/>
<stop offset="1" stop-color="#3F8D81"/>
</linearGradient>
</defs>
</svg>
