<svg width="85" height="69" viewBox="0 0 85 69" fill="none" xmlns="http://www.w3.org/2000/svg">
<path d="M65.2548 0.82251H7.49162C3.35418 0.82251 0 4.17669 0 8.3143V41.6152C0 45.7528 3.35418 49.1068 7.49162 49.1068H10.6487C11.6198 49.1068 12.5172 49.6241 13.0038 50.4643L21.3159 64.8152C22.1545 66.2631 24.2448 66.2631 25.0833 64.8152L33.3954 50.4643C33.8821 49.6241 34.7794 49.1068 35.7505 49.1068H65.2544C69.392 49.1068 72.7461 45.7527 72.7461 41.6152V8.3143C72.7466 4.17669 69.3924 0.82251 65.2548 0.82251Z" fill="url(#paint0_linear)"/>
<path d="M22.5757 50.4643L17.7898 58.7271L21.316 64.8152C22.1545 66.263 24.2448 66.263 25.0834 64.8152L33.3956 50.4643C33.8822 49.6241 34.7797 49.1068 35.7507 49.1068H24.9308C23.9598 49.1068 23.0623 49.6241 22.5757 50.4643Z" fill="#A9D0EA"/>
<path d="M65.2547 0.82251H54.4348C58.5724 0.82251 61.9264 4.17669 61.9264 8.3143V41.6152C61.9264 45.7528 58.5723 49.1068 54.4348 49.1068H65.2547C69.3923 49.1068 72.7463 45.7527 72.7463 41.6152V8.3143C72.7465 4.17669 69.3923 0.82251 65.2547 0.82251Z" fill="#A9D0EA"/>
<path d="M84.9068 66.6858L80.3274 56.313C80.052 55.6893 80.0351 54.9836 80.2731 54.3447C81.0267 52.3228 81.4225 50.1269 81.3818 47.8331C81.2118 38.2666 73.3652 30.4999 63.7974 30.4236C53.8884 30.3444 45.8403 38.3936 45.921 48.3029C46.0004 58.0419 54.0417 65.9559 63.7808 65.8868C66.1957 65.8697 68.4955 65.3692 70.5889 64.4782C71.1697 64.231 71.8209 64.2072 72.4199 64.4063L83.6017 68.1212C84.4752 68.4111 85.2785 67.5277 84.9068 66.6858Z" fill="url(#paint1_linear)"/>
<path d="M84.9069 66.686L80.3275 56.3131C80.0523 55.6894 80.0352 54.9837 80.2733 54.3449C81.0268 52.3229 81.4227 50.1271 81.3819 47.8332C81.2119 38.2667 73.3653 30.5 63.7975 30.4237C63.0652 30.4178 62.3434 30.4575 61.634 30.5379C64.0391 31.8341 66.1759 33.7026 67.8149 36.1014C73.4057 44.2835 71.2106 55.4523 62.9397 60.9101C60.5375 62.4952 57.8766 63.415 55.1812 63.7139C57.7395 65.1173 60.6734 65.9092 63.7809 65.8871C66.1958 65.87 68.4956 65.3695 70.5892 64.4784C71.17 64.2313 71.8212 64.2075 72.4202 64.4066L83.602 68.1215C84.4753 68.4112 85.2786 67.5278 84.9069 66.686Z" fill="#3B8378"/>
<path d="M63.1302 46.242C62.5542 46.806 61.8342 47.088 60.9702 47.088C60.1062 47.088 59.3802 46.8 58.7922 46.224C58.2162 45.648 57.9282 44.946 57.9282 44.118C57.9282 43.29 58.2162 42.588 58.7922 42.012C59.3802 41.436 60.1062 41.148 60.9702 41.148C61.8342 41.148 62.5542 41.436 63.1302 42.012C63.7062 42.576 63.9942 43.278 63.9942 44.118C63.9942 44.958 63.7062 45.666 63.1302 46.242ZM59.2062 52.092L67.4142 42.966L68.5122 43.578L60.2862 52.722L59.2062 52.092ZM60.1422 44.946C60.3582 45.162 60.6282 45.27 60.9522 45.27C61.2762 45.27 61.5462 45.162 61.7622 44.946C61.9782 44.718 62.0862 44.442 62.0862 44.118C62.0862 43.794 61.9782 43.524 61.7622 43.308C61.5462 43.092 61.2762 42.984 60.9522 42.984C60.6282 42.984 60.3582 43.092 60.1422 43.308C59.9382 43.524 59.8362 43.794 59.8362 44.118C59.8362 44.442 59.9382 44.718 60.1422 44.946ZM69.2142 53.352C68.6382 53.928 67.9182 54.216 67.0542 54.216C66.1902 54.216 65.4702 53.928 64.8942 53.352C64.3182 52.776 64.0302 52.074 64.0302 51.246C64.0302 50.418 64.3182 49.716 64.8942 49.14C65.4702 48.564 66.1902 48.276 67.0542 48.276C67.9182 48.276 68.6382 48.564 69.2142 49.14C69.7902 49.716 70.0782 50.418 70.0782 51.246C70.0782 52.074 69.7902 52.776 69.2142 53.352ZM66.2442 52.074C66.4602 52.29 66.7302 52.398 67.0542 52.398C67.3782 52.398 67.6422 52.284 67.8462 52.056C68.0622 51.828 68.1702 51.558 68.1702 51.246C68.1702 50.922 68.0622 50.652 67.8462 50.436C67.6422 50.208 67.3782 50.094 67.0542 50.094C66.7302 50.094 66.4602 50.208 66.2442 50.436C66.0402 50.652 65.9382 50.922 65.9382 51.246C65.9382 51.57 66.0402 51.846 66.2442 52.074Z" fill="white"/>
<path d="M64.8492 13.7232H7.89738C7.18883 13.7232 6.61475 13.149 6.61475 12.4406C6.61475 11.7322 7.18899 11.158 7.89738 11.158H64.849C65.5576 11.158 66.1317 11.7322 66.1317 12.4406C66.1318 13.1488 65.5576 13.7232 64.8492 13.7232Z" fill="#F0F7FF"/>
<path d="M64.8492 24.3421H7.89738C7.18883 24.3421 6.61475 23.7679 6.61475 23.0595C6.61475 22.3511 7.18899 21.7769 7.89738 21.7769H64.849C65.5576 21.7769 66.1317 22.3511 66.1317 23.0595C66.1318 23.7679 65.5576 24.3421 64.8492 24.3421Z" fill="#F0F7FF"/>
<path d="M42.1011 34.9611H7.89738C7.18883 34.9611 6.61475 34.3869 6.61475 33.6785C6.61475 32.9701 7.18899 32.3959 7.89738 32.3959H42.1009C42.8095 32.3959 43.3836 32.9701 43.3836 33.6785C43.3837 34.3869 42.8095 34.9611 42.1011 34.9611Z" fill="#F0F7FF"/>
<defs>
<linearGradient id="paint0_linear" x1="-0.517492" y1="0.754747" x2="53.7002" y2="76.0279" gradientUnits="userSpaceOnUse">
<stop stop-color="#D6E9F5"/>
<stop offset="1" stop-color="#ADD2EB"/>
</linearGradient>
<linearGradient id="paint1_linear" x1="45.9204" y1="34.1605" x2="71.3415" y2="59.6398" gradientUnits="userSpaceOnUse">
<stop stop-color="#479E91"/>
<stop offset="1" stop-color="#3F8D81"/>
</linearGradient>
</defs>
</svg>
