<svg width="16" height="16" viewBox="0 0 16 16" fill="none" xmlns="http://www.w3.org/2000/svg">
<g opacity="0.2" clip-path="url(#clip0)">
<path d="M0.8 1.3335H15.2C15.4122 1.3335 15.6157 1.41154 15.7657 1.55045C15.9157 1.68937 16 1.87778 16 2.07424V13.9261C16 14.1225 15.9157 14.311 15.7657 14.4499C15.6157 14.5888 15.4122 14.6668 15.2 14.6668H0.8C0.587827 14.6668 0.384344 14.5888 0.234315 14.4499C0.0842854 14.311 0 14.1225 0 13.9261V2.07424C0 1.87778 0.0842854 1.68937 0.234315 1.55045C0.384344 1.41154 0.587827 1.3335 0.8 1.3335ZM8.048 7.76535L2.9184 3.73201L1.8824 4.8609L8.0584 9.71646L14.1232 4.8572L13.0768 3.73646L8.0488 7.76535H8.048Z" fill="#060607"/>
</g>
<defs>
<clipPath id="clip0">
<rect width="16" height="16" fill="white"/>
</clipPath>
</defs>
</svg>
