<svg width="16" height="15" viewBox="0 0 16 15" fill="none" xmlns="http://www.w3.org/2000/svg">
<path d="M14.4 1.6H1.6V12.8L9.0336 5.3648C9.18362 5.21482 9.38707 5.13057 9.5992 5.13057C9.81133 5.13057 10.0148 5.21482 10.1648 5.3648L14.4 9.608V1.6ZM0 0.7944C0.00146404 0.584302 0.0855202 0.383214 0.23401 0.234574C0.3825 0.0859343 0.583504 0.00167572 0.7936 0H15.2064C15.6448 0 16 0.356 16 0.7944V13.6056C15.9985 13.8157 15.9145 14.0168 15.766 14.1654C15.6175 14.3141 15.4165 14.3983 15.2064 14.4H0.7936C0.583051 14.3998 0.381197 14.316 0.232392 14.167C0.0835856 14.0181 -1.06764e-07 13.8161 0 13.6056V0.7944ZM4.8 6.4C4.37565 6.4 3.96869 6.23143 3.66863 5.93137C3.36857 5.63131 3.2 5.22435 3.2 4.8C3.2 4.37565 3.36857 3.96869 3.66863 3.66863C3.96869 3.36857 4.37565 3.2 4.8 3.2C5.22435 3.2 5.63131 3.36857 5.93137 3.66863C6.23143 3.96869 6.4 4.37565 6.4 4.8C6.4 5.22435 6.23143 5.63131 5.93137 5.93137C5.63131 6.23143 5.22435 6.4 4.8 6.4Z" fill="#323441"/>
</svg>
