<svg width="105" height="19" viewBox="0 0 105 19" fill="none" xmlns="http://www.w3.org/2000/svg">
<path d="M6.71289 10.8103H22.9829C23.1169 10.8107 23.2496 10.8375 23.3732 10.8892C23.4969 10.9409 23.6092 11.0164 23.7036 11.1115C23.7981 11.2066 23.8729 11.3194 23.9237 11.4434C23.9745 11.5674 24.0004 11.7003 23.9999 11.8343V16.9533C23.9999 18.0833 23.0889 19.0003 21.9639 19.0003H7.73089C7.1895 18.9987 6.67089 18.7822 6.28909 18.3983C5.9073 18.0145 5.69357 17.4947 5.69489 16.9533V11.8343C5.69437 11.7002 5.7203 11.5673 5.7712 11.4432C5.82209 11.3191 5.89697 11.2063 5.99152 11.1112C6.08608 11.016 6.19846 10.9405 6.32225 10.8889C6.44603 10.8373 6.57878 10.8106 6.71289 10.8103ZM6.69489 7.74029H22.9999C23.2651 7.74029 23.5195 7.84565 23.707 8.03318C23.8945 8.22072 23.9999 8.47507 23.9999 8.74029V8.78729C23.9999 9.05251 23.8945 9.30686 23.707 9.4944C23.5195 9.68193 23.2651 9.78729 22.9999 9.78729H6.69489C6.42968 9.78729 6.17532 9.68193 5.98779 9.4944C5.80025 9.30686 5.69489 9.05251 5.69489 8.78729V8.73929C5.69489 8.47407 5.80025 8.21972 5.98779 8.03218C6.17532 7.84465 6.42968 7.73929 6.69489 7.73929V7.74029ZM0.892894 7.53029L11.4069 0.35329C11.845 0.0541244 12.3828 -0.061493 12.9051 0.0312276C13.4274 0.123948 13.8926 0.417625 14.2009 0.84929L17.2479 5.09229C17.5779 5.55129 17.4749 6.19129 17.0189 6.52229C16.8456 6.64792 16.637 6.71548 16.4229 6.71529H5.69489C5.56069 6.71555 5.42786 6.74229 5.30401 6.79398C5.18017 6.84567 5.06774 6.9213 4.97317 7.01652C4.8786 7.11173 4.80375 7.22468 4.75291 7.34888C4.70207 7.47308 4.67624 7.60609 4.67689 7.74029V13.6143C4.67814 13.8343 4.60803 14.0487 4.47708 14.2255C4.34612 14.4023 4.16138 14.5318 3.95057 14.5947C3.73976 14.6575 3.51424 14.6503 3.30786 14.5742C3.10147 14.498 2.92534 14.357 2.80589 14.1723L0.328894 10.3403C0.0384391 9.8907 -0.0651402 9.34553 0.0401903 8.82074C0.145521 8.29596 0.451449 7.83298 0.892894 7.53029Z" fill="white"/>
<path fill-rule="evenodd" clip-rule="evenodd" d="M46.5486 4.20153L44.7163 15.4617H47.6477L49.4802 4.20153H46.5486ZM42.2499 4.20153L39.455 11.9462L39.1244 10.2785L39.1247 10.2791L39.0518 9.90527C38.7136 9.17628 37.9301 7.79078 36.4509 6.60837C36.0135 6.25887 35.5727 5.96059 35.1465 5.7058L37.6866 15.4617H40.7409L45.405 4.20153H42.2499ZM53.6907 7.32759C53.6907 6.05452 56.5457 6.21811 57.8002 6.90938L58.2185 4.49099C58.2185 4.49099 56.9274 4 55.5818 4C54.1269 4 50.6723 4.63622 50.6723 7.72761C50.6723 10.637 54.727 10.6731 54.727 12.2006C54.727 13.7281 51.0903 13.4551 49.8902 12.4915L49.454 15.0193C49.454 15.0193 50.7629 15.6555 52.7634 15.6555C54.7635 15.6555 57.7819 14.6193 57.7819 11.8006C57.7819 8.87301 53.6907 8.60034 53.6907 7.32759ZM65.6531 4.20153H63.2961C62.2078 4.20153 61.9428 5.04069 61.9428 5.04069L57.5711 15.4617H60.6266L61.2378 13.7893H64.9645L65.3083 15.4617H68L65.6531 4.20153ZM62.0826 11.4786L63.623 7.26473L64.4896 11.4786H62.0826Z" fill="#131972"/>
<path fill-rule="evenodd" clip-rule="evenodd" d="M38.1782 5.26186C38.1782 5.26186 38.0568 4.24561 36.7614 4.24561H32.0551L32 4.4366C32 4.4366 34.2622 4.89775 36.4325 6.6255C38.5066 8.2768 39.1832 10.3352 39.1832 10.3352L38.1782 5.26186Z" fill="#131972"/>
<path d="M104.769 9.9137C104.769 14.8367 100.786 18.8275 95.8725 18.8275C90.9589 18.8275 86.9756 14.8367 86.9756 9.9137C86.9756 4.9908 90.9589 1 95.8725 1C100.786 1 104.769 4.9908 104.769 9.9137Z" fill="#F79F1A"/>
<path d="M93.7938 9.9137C93.7938 14.8367 89.8106 18.8275 84.8969 18.8275C79.9833 18.8275 76 14.8367 76 9.9137C76 4.9908 79.9833 1 84.8969 1C89.8106 1 93.7938 4.9908 93.7938 9.9137Z" fill="#EA001B"/>
<path d="M90.385 2.89697C88.3091 4.52877 86.9766 7.06457 86.9766 9.91317C86.9766 12.7617 88.3091 15.2994 90.385 16.9312C92.4608 15.2994 93.7934 12.7617 93.7934 9.91317C93.7934 7.06457 92.4608 4.52877 90.385 2.89697Z" fill="#FF5F01"/>
</svg>
