<svg width="24" height="24" viewBox="0 0 24 24" fill="none" xmlns="http://www.w3.org/2000/svg">
<path d="M8.56715 7.0514L16.4922 11.6746C16.549 11.7078 16.5961 11.7553 16.6288 11.8124C16.6615 11.8695 16.6787 11.9342 16.6787 12C16.6787 12.0658 16.6615 12.1305 16.6288 12.1876C16.5961 12.2447 16.549 12.2922 16.4922 12.3254L8.56715 16.9486C8.50973 16.9821 8.44448 16.9998 8.378 17C8.31152 17.0002 8.24618 16.9827 8.1886 16.9495C8.13102 16.9163 8.08325 16.8684 8.05013 16.8108C8.01701 16.7531 7.99972 16.6878 8 16.6213V7.37721C7.99998 7.31085 8.01747 7.24567 8.0507 7.18824C8.08393 7.13081 8.13172 7.08316 8.18926 7.05011C8.24679 7.01706 8.31203 6.99978 8.37838 7C8.44473 7.00023 8.50984 7.01796 8.56715 7.0514Z" fill="#3B8378"/>
</svg>
