<svg width="46" height="46" viewBox="0 0 46 46" fill="none" xmlns="http://www.w3.org/2000/svg">
<path d="M42.8206 19.2612L23.9303 31.342H22.0703L3.17984 19.2612C2.93601 19.5051 2.78516 19.842 2.78516 20.2142V44.652C2.78516 45.0241 2.93601 45.3611 3.17984 45.605C3.42368 45.8489 3.7606 45.9997 4.13283 45.9997H41.8676C42.2398 45.9997 42.5767 45.8488 42.8206 45.605C43.0646 45.3611 43.2153 45.0242 43.2153 44.652V20.2142C43.2153 19.8421 43.0645 19.5052 42.8206 19.2612Z" fill="#9EC1D9"/>
<path d="M17.7717 12.9365C17.2452 13.4625 17.2446 14.3158 17.7707 14.8424C18.2966 15.369 19.15 15.3695 19.6765 14.8435C21.5091 13.0129 24.4911 13.0129 26.3236 14.8435C26.8505 15.3698 27.7038 15.3687 28.2295 14.8424C28.7555 14.3158 28.7551 13.4625 28.2284 12.9365C25.3455 10.0568 20.6547 10.0568 17.7717 12.9365ZM12.0567 7.21782C18.0909 1.18609 27.9092 1.18609 33.9434 7.21782C34.4698 7.74422 35.3232 7.74368 35.8492 7.21746C36.3754 6.69106 36.3752 5.8378 35.8489 5.31158C28.764 -1.77053 17.2361 -1.77053 10.1512 5.31158C9.62479 5.8378 9.62461 6.69106 10.1508 7.21746C10.6771 7.74386 11.5302 7.74395 12.0567 7.21782ZM32.0394 11.03C32.5655 10.5035 32.5652 9.65027 32.0388 9.12414C27.0549 4.14315 18.9454 4.14315 13.9614 9.12414C13.435 9.65027 13.4348 10.5036 13.9609 11.03C14.487 11.5564 15.3404 11.5568 15.8668 11.0306C19.8001 7.09958 26.2002 7.09958 30.1335 11.0306C30.6601 11.557 31.5134 11.5562 32.0394 11.03ZM41.8675 18.8668H4.13267C3.76053 18.8668 3.42362 19.0177 3.17969 19.2615L22.07 35.9373C22.5907 36.4338 23.4094 36.4338 23.9301 35.9373L42.8204 19.2615C42.5765 19.0177 42.2396 18.8668 41.8675 18.8668Z" fill="url(#paint0_linear)"/>
<defs>
<linearGradient id="paint0_linear" x1="2.8977" y1="-0.0378075" x2="33.3671" y2="41.2775" gradientUnits="userSpaceOnUse">
<stop stop-color="#D6E9F5"/>
<stop offset="1" stop-color="#ADD2EB"/>
</linearGradient>
</defs>
</svg>
