<svg width="46" height="46" viewBox="0 0 46 46" fill="none" xmlns="http://www.w3.org/2000/svg">
<g clip-path="url(#clip0)">
<path d="M40.2229 22.1497L37.8238 23.0207C37.8238 23.0179 37.8242 23.0151 37.8242 23.0122V12.231C37.8242 11.4764 37.2312 10.8833 36.4766 10.8833H35.1289L23.0261 8.18799L10.8711 10.8833H9.52344C8.76866 10.8833 8.17578 11.4764 8.17578 12.231V23.0122L5.80391 22.1497C5.58819 22.3924 5.48047 22.6888 5.48047 23.0122V44.6527C5.48047 45.4075 6.07335 46.0003 6.82812 46.0003H39.1719C39.9265 46.0003 40.5195 45.4075 40.5195 44.6527V23.0123C40.5195 22.6889 40.4116 22.3924 40.2229 22.1497ZM11.8818 24.36H34.1354L22.9999 28.4029L11.8818 24.36Z" fill="url(#paint0_linear)"/>
<path d="M39.1727 21.6643H6.82891C6.39757 21.6643 6.02022 21.853 5.80469 22.1495L22.1384 35.7694C22.638 36.186 23.3638 36.1863 23.8637 35.77L40.2237 22.1494C39.9812 21.853 39.6038 21.6643 39.1727 21.6643ZM35.1297 1.34766C35.1297 0.593059 34.5366 0 33.782 0H12.2195C11.4648 0 10.8719 0.593059 10.8719 1.34766V10.883H35.1297V1.34766Z" fill="url(#paint1_linear)"/>
</g>
<defs>
<linearGradient id="paint0_linear" x1="5.23121" y1="8.14862" x2="38.1187" y2="45.9996" gradientUnits="userSpaceOnUse">
<stop stop-color="#D6E9F5"/>
<stop offset="1" stop-color="#ADD2EB"/>
</linearGradient>
<linearGradient id="paint1_linear" x1="23.0142" y1="36.082" x2="23.0142" y2="0" gradientUnits="userSpaceOnUse">
<stop stop-color="#D5EEFF"/>
<stop offset="0.9973" stop-color="#E9F6FF"/>
</linearGradient>
<clipPath id="clip0">
<rect width="46" height="46" fill="white"/>
</clipPath>
</defs>
</svg>
