<svg width="16" height="16" viewBox="0 0 16 16" fill="none" xmlns="http://www.w3.org/2000/svg">
<path d="M0.598945 9.22257C0.464414 8.41312 0.464414 7.58702 0.598945 6.77757C1.42544 6.79707 2.16794 6.40107 2.45669 5.70432C2.74544 5.00682 2.50019 4.20132 1.90169 3.63207C2.379 2.96404 2.96337 2.37942 3.63119 1.90182C4.20119 2.50032 5.00669 2.74557 5.70419 2.45682C6.40169 2.16807 6.79694 1.42482 6.77669 0.599069C7.58663 0.464373 8.41326 0.464373 9.22319 0.599069C9.20294 1.42557 9.59894 2.16807 10.2957 2.45682C10.9932 2.74557 11.7987 2.50032 12.3679 1.90182C13.036 2.37913 13.6206 2.96349 14.0982 3.63132C13.4997 4.20132 13.2544 5.00682 13.5432 5.70432C13.8319 6.40182 14.5752 6.79707 15.4009 6.77682C15.5356 7.58676 15.5356 8.41338 15.4009 9.22332C14.5744 9.20307 13.8319 9.59907 13.5432 10.2958C13.2544 10.9933 13.4997 11.7988 14.0982 12.3681C13.6209 13.0361 13.0365 13.6207 12.3687 14.0983C11.7987 13.4998 10.9932 13.2546 10.2957 13.5433C9.59819 13.8321 9.20294 14.5753 9.22319 15.4011C8.41326 15.5358 7.58663 15.5358 6.77669 15.4011C6.79694 14.5746 6.40094 13.8321 5.70419 13.5433C5.00669 13.2546 4.20119 13.4998 3.63194 14.0983C2.96391 13.621 2.37929 13.0366 1.90169 12.3688C2.50019 11.7988 2.74544 10.9933 2.45669 10.2958C2.16794 9.59832 1.42469 9.20307 0.598945 9.22332V9.22257ZM7.99994 10.2501C8.59668 10.2501 9.16898 10.013 9.59093 9.59106C10.0129 9.1691 10.2499 8.59681 10.2499 8.00007C10.2499 7.40333 10.0129 6.83104 9.59093 6.40908C9.16898 5.98712 8.59668 5.75007 7.99994 5.75007C7.40321 5.75007 6.83091 5.98712 6.40895 6.40908C5.987 6.83104 5.74994 7.40333 5.74994 8.00007C5.74994 8.59681 5.987 9.1691 6.40895 9.59106C6.83091 10.013 7.40321 10.2501 7.99994 10.2501Z" fill="#484848"/>
</svg>
