<svg width="24" height="81" viewBox="0 0 24 81" fill="none" xmlns="http://www.w3.org/2000/svg">
<path d="M5 12.7509H9.50539V11.2491H5V4.37542C5.00001 4.31017 5.01702 4.24606 5.04936 4.1894C5.0817 4.13273 5.12824 4.08547 5.1844 4.05227C5.24057 4.01907 5.30441 4.00108 5.36965 4.00008C5.43488 3.99907 5.49925 4.01508 5.55642 4.04652L19.4195 11.6711C19.4784 11.7035 19.5274 11.7512 19.5616 11.809C19.5958 11.8669 19.6139 11.9328 19.6139 12C19.6139 12.0672 19.5958 12.1332 19.5616 12.191C19.5274 12.2489 19.4784 12.2965 19.4195 12.3289L5.55642 19.9535C5.49925 19.985 5.43488 20.001 5.36965 20C5.30441 19.999 5.24057 19.981 5.1844 19.9478C5.12824 19.9146 5.0817 19.8673 5.04936 19.8107C5.01702 19.754 5.00001 19.6899 5 19.6246V12.7509Z" fill="#323441"/>
<path d="M9.56765 37.1283L11.4811 35.2149C11.6187 35.0773 11.8054 35 12 35C12.1946 35 12.3813 35.0773 12.5189 35.2149L14.4323 37.1283H17.1377C17.3324 37.1283 17.5191 37.2056 17.6567 37.3433C17.7943 37.4809 17.8717 37.6676 17.8717 37.8623V40.5677L19.7851 42.4811C19.9227 42.6187 20 42.8054 20 43C20 43.1946 19.9227 43.3813 19.7851 43.5189L17.8717 45.4323V48.1377C17.8717 48.3324 17.7943 48.5191 17.6567 48.6567C17.5191 48.7943 17.3324 48.8717 17.1377 48.8717H14.4323L12.5189 50.7851C12.3813 50.9227 12.1946 51 12 51C11.8054 51 11.6187 50.9227 11.4811 50.7851L9.56765 48.8717H6.86228C6.66762 48.8717 6.48094 48.7943 6.34329 48.6567C6.20565 48.5191 6.12832 48.3324 6.12832 48.1377V45.4323L4.21489 43.5189C4.07729 43.3813 3.99999 43.1946 3.99999 43C3.99999 42.8054 4.07729 42.6187 4.21489 42.4811L6.12832 40.5677V37.8623C6.12832 37.6676 6.20565 37.4809 6.34329 37.3433C6.48094 37.2056 6.66762 37.1283 6.86228 37.1283H9.56765ZM12 45.2019C12.584 45.2019 13.144 44.9699 13.557 44.557C13.9699 44.144 14.2019 43.584 14.2019 43C14.2019 42.416 13.9699 41.856 13.557 41.443C13.144 41.0301 12.584 40.7981 12 40.7981C11.416 40.7981 10.856 41.0301 10.443 41.443C10.0301 41.856 9.79812 42.416 9.79812 43C9.79812 43.584 10.0301 44.144 10.443 44.557C10.856 44.9699 11.416 45.2019 12 45.2019V45.2019Z" fill="#323441"/>
<path d="M5.6 65.8H18.4V76.2C18.4 76.4122 18.3157 76.6157 18.1657 76.7657C18.0157 76.9157 17.8122 77 17.6 77H6.4C6.18783 77 5.98434 76.9157 5.83431 76.7657C5.68429 76.6157 5.6 76.4122 5.6 76.2V65.8ZM8 63.4V61.8C8 61.5878 8.08429 61.3843 8.23431 61.2343C8.38434 61.0843 8.58783 61 8.8 61H15.2C15.4122 61 15.6157 61.0843 15.7657 61.2343C15.9157 61.3843 16 61.5878 16 61.8V63.4H20V65H4V63.4H8ZM9.6 62.6V63.4H14.4V62.6H9.6ZM9.6 69V73.8H11.2V69H9.6ZM12.8 69V73.8H14.4V69H12.8Z" fill="#5BA4D7"/>
</svg>
