<svg width="15" height="15" viewBox="0 0 15 15" fill="none" xmlns="http://www.w3.org/2000/svg">
<path d="M0.738129 7.5C1.32563 4.3 4.13 1.875 7.5 1.875C10.87 1.875 13.6738 4.3 14.2619 7.5C13.6744 10.7 10.87 13.125 7.5 13.125C4.13 13.125 1.32625 10.7 0.738129 7.5ZM7.5 10.625C8.32881 10.625 9.12366 10.2958 9.70971 9.70971C10.2958 9.12366 10.625 8.3288 10.625 7.5C10.625 6.6712 10.2958 5.87634 9.70971 5.29029C9.12366 4.70424 8.32881 4.375 7.5 4.375C6.6712 4.375 5.87635 4.70424 5.2903 5.29029C4.70424 5.87634 4.375 6.6712 4.375 7.5C4.375 8.3288 4.70424 9.12366 5.2903 9.70971C5.87635 10.2958 6.6712 10.625 7.5 10.625ZM7.5 9.375C7.00272 9.375 6.52581 9.17746 6.17418 8.82583C5.82255 8.47419 5.625 7.99728 5.625 7.5C5.625 7.00272 5.82255 6.52581 6.17418 6.17417C6.52581 5.82254 7.00272 5.625 7.5 5.625C7.99728 5.625 8.4742 5.82254 8.82583 6.17417C9.17746 6.52581 9.375 7.00272 9.375 7.5C9.375 7.99728 9.17746 8.47419 8.82583 8.82583C8.4742 9.17746 7.99728 9.375 7.5 9.375Z" fill="#323441"/>
</svg>
