<svg width="72" height="72" viewBox="0 0 72 72" fill="none" xmlns="http://www.w3.org/2000/svg">
<rect width="72" height="72" fill="url(#paint0_linear)"/>
<path d="M24.8931 56.2234C24.8931 54.6899 26.1362 53.4468 27.6697 53.4468H44.3297C45.8632 53.4468 47.1063 54.6899 47.1063 56.2234C47.1063 57.7569 45.8631 59 44.3297 59H27.6698C26.1362 59 24.8931 57.7569 24.8931 56.2234Z" fill="#EDEDED"/>
<path d="M32.2977 56.2234C32.2977 54.6899 33.5409 53.4468 35.0743 53.4468H27.6699C26.1364 53.4468 24.8933 54.6899 24.8933 56.2234C24.8933 57.7569 26.1364 59 27.6699 59H35.0743C33.5409 59 32.2977 57.7569 32.2977 56.2234Z" fill="#DCDCDC"/>
<path d="M25.9388 42.595H46.0607L49.6763 40.7119L50.4765 29.6599H21.5229L22.1288 38.0268L25.9388 42.595Z" fill="#EDEDED"/>
<path d="M25.9388 42.595H29.864L28.9274 29.6599H21.5229L22.1288 38.0268L25.9388 42.595Z" fill="#DCDCDC"/>
<path d="M36.9625 13.686L29.2861 42.3346H35.0353L42.7394 13.5826C42.8182 13.2887 42.5967 13 42.2925 13H37.8565C37.4376 13 37.0709 13.2814 36.9625 13.686Z" fill="#FF6F7F"/>
<path d="M40.8034 13H37.8565C37.4376 13 37.0709 13.2814 36.9625 13.686L29.2861 42.3346H32.233L39.9093 13.686C40.0178 13.2814 40.3844 13 40.8034 13V13Z" fill="#E76E54"/>
<path d="M19.3398 29.6599C19.3398 28.1264 20.583 26.8833 22.1165 26.8833H49.883C51.4166 26.8833 52.6597 28.1265 52.6597 29.6599C52.6597 31.1935 51.4165 32.4365 49.883 32.4365H22.1166C20.583 32.4365 19.3398 31.1934 19.3398 29.6599Z" fill="#DCDCDC"/>
<path d="M26.7442 29.6599C26.7442 28.1264 27.9874 26.8833 29.5208 26.8833H22.1165C20.5829 26.8833 19.3398 28.1265 19.3398 29.6599C19.3398 31.1934 20.583 32.4365 22.1165 32.4365H29.5208C27.9874 32.4365 26.7442 31.1934 26.7442 29.6599Z" fill="#CECECC"/>
<path d="M16.5632 25.0322C16.5632 23.4987 17.8064 22.2556 19.3399 22.2556H52.6598C54.1933 22.2556 55.4364 23.4988 55.4364 25.0322C55.4364 26.5658 54.1932 27.8089 52.6598 27.8089H19.3399C17.8064 27.8089 16.5632 26.5657 16.5632 25.0322Z" fill="#EDEDED"/>
<path d="M23.9676 25.0322C23.9676 23.4987 25.2108 22.2556 26.7442 22.2556H19.3399C17.8063 22.2556 16.5632 23.4988 16.5632 25.0322C16.5632 26.5657 17.8064 27.8089 19.3399 27.8089H26.7442C25.2108 27.8089 23.9676 26.5657 23.9676 25.0322Z" fill="#DCDCDC"/>
<path d="M23.211 52.974C23.2811 53.9419 24.0868 54.6914 25.0573 54.6914H46.9422C47.9127 54.6914 48.7184 53.9419 48.7884 52.974L49.6763 40.7121C45.8389 40.3244 45.4624 37.99 40.9358 37.99C35.9995 37.99 35.9995 40.7666 31.0631 40.7666C26.4615 40.7666 26.1489 38.3539 22.1287 38.0269L23.211 52.974Z" fill="url(#paint1_linear)"/>
<path d="M30.6155 52.9739L29.7261 40.6893C26.3529 40.2747 25.7197 38.3189 22.1289 38.0269L23.2112 52.9739C23.2812 53.9419 24.087 54.6913 25.0575 54.6913H32.4618C31.4914 54.6913 30.6857 53.9418 30.6155 52.9739Z" fill="url(#paint2_linear)"/>
<defs>
<linearGradient id="paint0_linear" x1="-0.512184" y1="-0.07497" x2="61.273" y2="76.6632" gradientUnits="userSpaceOnUse">
<stop stop-color="#D6E9F5"/>
<stop offset="1" stop-color="#ADD2EB"/>
</linearGradient>
<linearGradient id="paint1_linear" x1="22.1287" y1="39.6434" x2="32.2449" y2="55.8004" gradientUnits="userSpaceOnUse">
<stop stop-color="#479E91"/>
<stop offset="1" stop-color="#3F8D81"/>
</linearGradient>
<linearGradient id="paint2_linear" x1="22.1289" y1="39.6766" x2="32.0326" y2="45.6228" gradientUnits="userSpaceOnUse">
<stop stop-color="#479E91"/>
<stop offset="1" stop-color="#3F8D81"/>
</linearGradient>
</defs>
</svg>
