<svg width="72" height="72" viewBox="0 0 72 72" fill="none" xmlns="http://www.w3.org/2000/svg">
<rect width="72" height="72" fill="url(#paint0_linear)"/>
<path d="M57.0935 32.5486H14.8882V52.7951H57.0935V32.5486Z" fill="#FDCA74"/>
<path d="M57.0935 34.4365H14.9346V37.1662H57.0935V34.4365Z" fill="#E6B25B"/>
<path d="M57.0935 44.5447H14.9346V47.2743H57.0935V44.5447Z" fill="#E6B25B"/>
<path d="M44.6236 18.6058C42.9165 18.1225 41.0921 18.2796 39.488 19.0374C39.488 19.0374 15.7467 30.1344 14.1533 30.8083C13.461 31.1012 12.9796 31.7952 13.0007 32.5989C13.0278 33.6296 13.9033 34.4365 14.9344 34.4365H54.2187C55.0227 34.4365 55.6739 35.0883 55.6739 35.8923V39.3271C55.6739 40.1311 55.0221 40.783 54.2181 40.783H14.8883C13.8454 40.7831 13 41.6286 13 42.6715C13 43.7144 13.8454 44.5598 14.8883 44.5598H54.2181C55.0221 44.5598 55.6739 45.2116 55.6739 46.0156V49.4505C55.6739 50.2545 55.0221 50.9063 54.2181 50.9063H14.8883C13.8454 50.9063 13 51.7517 13 52.7946C13 53.8375 13.8454 54.683 14.8883 54.683H56.2174C57.7542 54.683 59 53.4372 59 51.9004V34.4368C59 24.0215 49.521 19.9925 44.6236 18.6058Z" fill="#A8503C"/>
<path d="M44.6236 18.6058C43.6675 18.3351 42.6745 18.2656 41.7041 18.3898C42.0632 18.4353 42.4204 18.5062 42.7724 18.6058C47.6699 19.9925 57.1489 24.0215 57.1489 34.4367V51.9003C57.1489 53.4371 55.9031 54.6829 54.3663 54.6829H56.2175C57.7542 54.6829 59 53.4371 59 51.9003V34.4368C59 24.0215 49.521 19.9925 44.6236 18.6058Z" fill="#993E29"/>
<path d="M38.5641 26.7435C38.5212 26.7435 38.4777 26.7395 38.4341 26.7313C38.0577 26.6599 37.8102 26.297 37.8812 25.9206C37.8866 25.891 38.1692 24.3285 37.8998 22.6423C37.5606 20.5195 36.529 19.1852 34.8338 18.6764C34.4665 18.5663 34.2581 18.1792 34.3684 17.812C34.4786 17.4448 34.8656 17.2364 35.2327 17.3466C37.4615 18.0154 38.8598 19.7842 39.2768 22.4615C39.5767 24.3879 39.259 26.1061 39.2453 26.1784C39.1822 26.5113 38.891 26.7435 38.5641 26.7435Z" fill="#DE4B51"/>
<path d="M38.5629 29.5336C40.4873 29.5336 42.0472 27.9736 42.0472 26.0493C42.0472 24.1249 40.4873 22.5649 38.5629 22.5649C36.6386 22.5649 35.0786 24.1249 35.0786 26.0493C35.0786 27.9736 36.6386 29.5336 38.5629 29.5336Z" fill="#F9545B"/>
<defs>
<linearGradient id="paint0_linear" x1="-0.512184" y1="-0.07497" x2="61.273" y2="76.6632" gradientUnits="userSpaceOnUse">
<stop stop-color="#D6E9F5"/>
<stop offset="1" stop-color="#ADD2EB"/>
</linearGradient>
</defs>
</svg>
