<svg width="72" height="72" viewBox="0 0 72 72" fill="none" xmlns="http://www.w3.org/2000/svg">
<rect width="72" height="72" fill="url(#paint0_linear)"/>
<g clip-path="url(#clip0)">
<path fill-rule="evenodd" clip-rule="evenodd" d="M29.4615 15.8391C28.65 15.8391 27.9883 16.4982 27.9883 17.3124C27.9883 18.1265 28.65 18.7856 29.4615 18.7856C30.2757 18.7856 30.9348 18.1265 30.9348 17.3124C30.9348 16.4982 30.2757 15.8391 29.4615 15.8391Z" fill="url(#paint1_linear)"/>
<path fill-rule="evenodd" clip-rule="evenodd" d="M25.4011 26.9792L22.4573 34.1259L30.8366 40.6418L42.2631 43.8417L35.1012 34.1259L25.4011 26.9792Z" fill="url(#paint2_linear)"/>
<path fill-rule="evenodd" clip-rule="evenodd" d="M42.2632 43.8415L22.4574 34.1257L20.6455 38.5274L28.9705 45.5784L39.6811 47.8659L44.3593 45.9377L42.2632 43.8415Z" fill="#E76E54"/>
<path fill-rule="evenodd" clip-rule="evenodd" d="M20.6454 38.5276L17.5828 45.9714L21.8835 50.748L29.764 51.9472L39.6811 47.866L20.6454 38.5276Z" fill="url(#paint3_linear)"/>
<path fill-rule="evenodd" clip-rule="evenodd" d="M17.5829 45.9712L15.771 50.3755L18.7718 53.5107L23.8996 54.3611L29.7641 51.947L17.5829 45.9712Z" fill="#E76E54"/>
<path fill-rule="evenodd" clip-rule="evenodd" d="M15.7709 50.3757L13.2509 56.4936C12.8451 57.7136 12.9098 58.3003 13.605 58.3339H13.7471C14.0314 58.321 14.4036 58.2357 14.8688 58.0806L23.8995 54.3613L15.7709 50.3757Z" fill="url(#paint4_linear)"/>
<path fill-rule="evenodd" clip-rule="evenodd" d="M14.8688 58.0806L23.8995 54.3612L20.617 52.751L13.6024 55.6406L13.2509 56.4936C12.8451 57.7136 12.9098 58.3003 13.605 58.3339H13.7471C14.0315 58.3209 14.4036 58.2357 14.8688 58.0806Z" fill="#3B8378"/>
<path fill-rule="evenodd" clip-rule="evenodd" d="M23.8996 54.361L29.7641 51.9469L26.4817 50.3367L21.801 52.2649L20.6172 52.7508L23.8996 54.361Z" fill="#FF6D75"/>
<path fill-rule="evenodd" clip-rule="evenodd" d="M29.7639 51.947L39.681 47.8659L36.3986 46.2556L27.6652 49.8509L26.4814 50.3368L29.7639 51.947Z" fill="#3B8378"/>
<path fill-rule="evenodd" clip-rule="evenodd" d="M39.6809 47.8659L44.359 45.9377L42.4852 44.0638L42.2629 43.8416L37.5822 45.7672L36.3984 46.2557L39.6809 47.8659Z" fill="#FF6D75"/>
<path fill-rule="evenodd" clip-rule="evenodd" d="M25.401 26.9791L42.263 43.8415L44.3592 45.9376L44.584 46.1625C45.2043 46.7828 46.2227 46.7828 46.8456 46.1625C47.4659 45.5396 47.4659 44.5238 46.8456 43.9009L27.4377 24.4926C26.8148 23.8723 25.799 23.8723 25.1761 24.4926C24.5533 25.1154 24.5533 26.1312 25.1761 26.7541L25.401 26.9791Z" fill="#FDE588"/>
<path fill-rule="evenodd" clip-rule="evenodd" d="M46.8456 46.1626C47.4659 45.5397 47.4659 44.5239 46.8456 43.9009L44.7521 41.8074C45.3698 42.4303 45.3673 43.4434 44.7469 44.0638C44.124 44.6867 43.1082 44.6867 42.4854 44.0638L44.3592 45.9377L44.5841 46.1626C45.2045 46.7829 46.2228 46.7829 46.8456 46.1626Z" fill="#FDD76F"/>
<path d="M45.3901 37.2752C45.2286 37.2752 45.0664 37.2183 44.9361 37.1024C44.6538 36.8515 44.6284 36.4192 44.8793 36.137C46.1255 34.7349 47.8405 32.9555 50.0581 31.6293C52.5952 30.1119 55.3876 29.4355 58.3584 29.6204C58.7354 29.6437 59.022 29.9682 58.9986 30.3452C58.9752 30.7222 58.6495 31.01 58.2737 30.9854C52.4404 30.6243 48.7459 33.8458 45.9015 37.0457C45.7665 37.1977 45.5787 37.2752 45.3901 37.2752Z" fill="#E76E54"/>
<path d="M33.1577 26.3656C32.9703 26.3656 32.7836 26.2891 32.6486 26.1386C32.3963 25.8575 32.4196 25.4251 32.7007 25.1728C35.1737 22.9532 37.6895 20.1023 37.599 15.789C37.5911 15.4114 37.8909 15.0989 38.2685 15.0909C38.6491 15.084 38.9586 15.3828 38.9666 15.7604C39.0692 20.6549 36.1602 23.9056 33.6144 26.1907C33.4837 26.3078 33.3203 26.3656 33.1577 26.3656Z" fill="url(#paint5_linear)"/>
<path d="M41.4022 34.6131C41.237 34.6131 41.0713 34.5536 40.9399 34.433C40.6617 34.1777 40.6432 33.7451 40.8985 33.4669C42.2152 32.0322 44.0073 30.1974 46.1962 28.7319C46.5101 28.5218 46.9348 28.6058 47.1449 28.9197C47.3551 29.2335 47.271 29.6583 46.9571 29.8684C44.8888 31.2533 43.1713 33.0132 41.9061 34.3917C41.7714 34.5385 41.587 34.6131 41.4022 34.6131Z" fill="url(#paint6_linear)"/>
<path d="M37.8077 28.3841C37.6191 28.3841 37.4314 28.3065 37.2963 28.1545C37.0454 27.8722 37.0708 27.44 37.3531 27.1891C40.6621 24.2477 43.9943 20.4272 43.6199 14.3927C43.5966 14.0157 43.8832 13.6912 44.2602 13.6678C44.6364 13.6444 44.9617 13.9311 44.985 14.3081C45.1751 17.3709 44.4777 20.2509 42.9124 22.868C41.5437 25.1564 39.7081 26.9256 38.2617 28.2113C38.1316 28.3271 37.9693 28.3841 37.8077 28.3841Z" fill="#E76E54"/>
<path fill-rule="evenodd" clip-rule="evenodd" d="M50.6553 21.0473L51.6116 19.1579C51.7408 18.9046 51.8365 18.9046 51.9657 19.1605L52.922 21.0473L54.8087 22.0036C55.0645 22.1328 55.0645 22.2285 54.8087 22.3577L52.922 23.314L51.9657 25.2008C51.8365 25.4566 51.7408 25.454 51.6116 25.2008L50.6553 23.314L48.7686 22.3577C48.5153 22.2285 48.5127 22.1328 48.7686 22.0036L50.6553 21.0473Z" fill="#FDE588"/>
<path fill-rule="evenodd" clip-rule="evenodd" d="M53.9377 40.5591C53.1261 40.5591 52.467 41.2182 52.467 42.0323C52.467 42.8465 53.1261 43.5056 53.9377 43.5056C54.7519 43.5056 55.411 42.8465 55.411 42.0323C55.411 41.2182 54.7519 40.5591 53.9377 40.5591Z" fill="url(#paint7_linear)"/>
</g>
<defs>
<linearGradient id="paint0_linear" x1="-0.512184" y1="-0.07497" x2="61.273" y2="76.6632" gradientUnits="userSpaceOnUse">
<stop stop-color="#D6E9F5"/>
<stop offset="1" stop-color="#ADD2EB"/>
</linearGradient>
<linearGradient id="paint1_linear" x1="27.9883" y1="16.1308" x2="29.9712" y2="18.0509" gradientUnits="userSpaceOnUse">
<stop stop-color="#479E91"/>
<stop offset="1" stop-color="#3F8D81"/>
</linearGradient>
<linearGradient id="paint2_linear" x1="22.4573" y1="28.6485" x2="33.7178" y2="41.4555" gradientUnits="userSpaceOnUse">
<stop stop-color="#479E91"/>
<stop offset="1" stop-color="#3F8D81"/>
</linearGradient>
<linearGradient id="paint3_linear" x1="17.5828" y1="39.8561" x2="25.717" y2="52.8263" gradientUnits="userSpaceOnUse">
<stop stop-color="#479E91"/>
<stop offset="1" stop-color="#3F8D81"/>
</linearGradient>
<linearGradient id="paint4_linear" x1="13" y1="51.1636" x2="18.1518" y2="57.9958" gradientUnits="userSpaceOnUse">
<stop stop-color="#479E91"/>
<stop offset="1" stop-color="#3F8D81"/>
</linearGradient>
<linearGradient id="paint5_linear" x1="32.4736" y1="16.207" x2="38.9334" y2="19.8106" gradientUnits="userSpaceOnUse">
<stop stop-color="#479E91"/>
<stop offset="1" stop-color="#3F8D81"/>
</linearGradient>
<linearGradient id="paint6_linear" x1="40.7185" y1="29.2099" x2="44.7503" y2="33.4688" gradientUnits="userSpaceOnUse">
<stop stop-color="#479E91"/>
<stop offset="1" stop-color="#3F8D81"/>
</linearGradient>
<linearGradient id="paint7_linear" x1="52.467" y1="40.8508" x2="54.4499" y2="42.7691" gradientUnits="userSpaceOnUse">
<stop stop-color="#479E91"/>
<stop offset="1" stop-color="#3F8D81"/>
</linearGradient>
<clipPath id="clip0">
<rect width="46" height="46" fill="white" transform="translate(13 13)"/>
</clipPath>
</defs>
</svg>
