<svg width="72" height="72" viewBox="0 0 72 72" fill="none" xmlns="http://www.w3.org/2000/svg">
<rect width="72" height="72" fill="url(#paint0_linear)"/>
<g clip-path="url(#clip0)">
<path d="M16 13V52.3255C16 56.0058 18.9941 59 22.6745 59H32.2353L33.5882 36L32.2353 13C31.3333 13 16.902 13 16 13Z" fill="#FBF4F4"/>
<path d="M52.5295 59L48.4706 25.1765C48.4706 23.7033 48.4706 14.4829 48.4706 13C47.5687 13 33.1373 13 32.2354 13V59H52.5295Z" fill="#FBF4F4"/>
<path d="M48.4705 25.1765V54.9412C48.4705 57.1828 50.2876 59 52.5293 59C55.1559 58.8663 56.5881 56.9141 56.5881 54.9412C56.5881 53.2883 56.5881 26.8294 56.5881 25.1765C55.606 25.1765 49.4591 25.1765 48.4705 25.1765Z" fill="#DCDCDC"/>
<path d="M32.2352 41.4119C30.9257 41.4119 22.7297 41.4119 21.4116 41.4119C21.4116 40.1025 21.4116 31.9065 21.4116 30.5884H32.2352V41.4119Z" fill="#FFCE47"/>
<path d="M43.0589 52.2352C41.7494 52.2352 33.5534 52.2352 32.2354 52.2352C32.2354 51.2888 32.2354 50.4756 32.2354 49.5293H43.0589V52.2352Z" fill="#C1DDF0"/>
<path d="M43.0588 41.4117C42.0767 41.4117 35.9298 41.4117 34.9412 41.4117C34.9412 40.4654 34.9412 39.6521 34.9412 38.7058H43.0588V41.4117Z" fill="#C7E0F1"/>
<path d="M43.0588 36.0001C42.0767 36.0001 35.9298 36.0001 34.9412 36.0001C34.9412 35.0537 34.9412 34.2405 34.9412 33.2942H43.0588V36.0001Z" fill="#C1DDF0"/>
<path d="M21.4116 19.7646V26.5293H32.2352L33.5881 23.147L32.2352 19.7646C30.9257 19.7646 22.7297 19.7646 21.4116 19.7646Z" fill="#E76E54"/>
<path d="M43.0589 19.7646C41.7494 19.7646 33.5534 19.7646 32.2354 19.7646V26.5293H43.0589C43.0589 24.7079 43.0589 20.8257 43.0589 19.7646Z" fill="#E76E54"/>
<path d="M21.4116 44.1177V46.8236H32.2352L33.5881 45.4706L32.2352 44.1177C30.9257 44.1177 22.7297 44.1177 21.4116 44.1177Z" fill="#C4DFF0"/>
<path d="M43.0589 44.1177C41.7494 44.1177 33.5534 44.1177 32.2354 44.1177V46.8236H43.0589C43.0589 45.8772 43.0589 45.064 43.0589 44.1177Z" fill="#A9D0EA"/>
</g>
<defs>
<linearGradient id="paint0_linear" x1="-1.32866e-06" y1="7.12768" x2="48.4544" y2="54.0465" gradientUnits="userSpaceOnUse">
<stop stop-color="#479E91"/>
<stop offset="1" stop-color="#3F8D81"/>
</linearGradient>
<clipPath id="clip0">
<rect width="46" height="46" fill="white" transform="translate(13 13)"/>
</clipPath>
</defs>
</svg>
