<svg width="72" height="72" viewBox="0 0 72 72" fill="none" xmlns="http://www.w3.org/2000/svg">
<rect width="72" height="72" fill="url(#paint0_linear)"/>
<path d="M46.3149 24.6181C46.146 24.3943 45.8615 24.2906 45.5879 24.3535C45.3147 24.4163 45.1038 24.6338 45.0494 24.9088L44.4169 28.1086L36.6289 13.3788C36.5057 13.1458 36.2637 13 36.0001 13C35.999 13 35.9979 13 35.9968 13C35.732 13.0013 35.4897 13.1495 35.3681 13.3847L24.5884 34.2374L23.2761 30.0819C23.1928 29.8178 22.9637 29.626 22.689 29.5906C22.4144 29.555 22.144 29.6823 21.9962 29.9165C18.9847 34.6888 17.4578 38.6184 17.4578 41.5958C17.4578 46.4911 19.3949 50.9535 22.9124 54.1607C26.3348 57.2814 30.9828 59 36.0001 59C41.0174 59 45.6654 57.2814 49.0877 54.1608C52.6053 50.9535 54.5424 46.4912 54.5424 41.5959C54.5424 37.5603 51.7743 31.8481 46.3149 24.6181Z" fill="#E76E54"/>
<path d="M40.1731 57.198C35.1558 57.198 30.5078 55.4794 27.0854 52.3588C23.5679 49.1515 21.6308 44.6892 21.6308 39.7939C21.6308 37.688 22.3957 35.1052 23.9084 32.0852L23.2758 30.0819C23.1924 29.8178 22.9633 29.626 22.6887 29.5906C22.414 29.555 22.1437 29.6823 21.9959 29.9165C18.9844 34.6889 17.4575 38.6185 17.4575 41.5959C17.4575 46.4912 19.3946 50.9536 22.9122 54.1608C26.3346 57.2815 30.9826 59.0001 35.9999 59.0001C39.6793 59.0001 43.1592 58.0748 46.1037 56.3511C44.2284 56.9081 42.232 57.198 40.1731 57.198Z" fill="#E56043"/>
<path d="M24.2393 44.8206C24.2393 38.3253 36.0001 25.0928 36.0001 25.0928C36.0001 25.0928 47.7609 38.3253 47.7609 44.8206C47.7609 51.3158 42.4953 56.5814 36.0001 56.5814C29.5048 56.5814 24.2393 51.3159 24.2393 44.8206Z" fill="#FFCE47"/>
<path d="M38.8454 53.7361C32.3502 53.7361 27.0846 48.4706 27.0846 41.9753C27.0846 37.4574 32.7736 29.6815 36.2382 25.3646C36.0853 25.1887 36.0001 25.0928 36.0001 25.0928C36.0001 25.0928 24.2393 38.3254 24.2393 44.8207C24.2393 51.3159 29.5048 56.5815 36.0001 56.5815C39.9743 56.5815 43.4878 54.61 45.6168 51.5919C43.7021 52.9425 41.3665 53.7361 38.8454 53.7361Z" fill="#FB9D46"/>
<defs>
<linearGradient id="paint0_linear" x1="-1.32866e-06" y1="7.12768" x2="48.4544" y2="54.0465" gradientUnits="userSpaceOnUse">
<stop stop-color="#479E91"/>
<stop offset="1" stop-color="#3F8D81"/>
</linearGradient>
</defs>
</svg>
