<svg width="72" height="72" viewBox="0 0 72 72" fill="none" xmlns="http://www.w3.org/2000/svg">
<rect width="72" height="72" fill="url(#paint0_linear)"/>
<path d="M20.5307 58.9068C24.6283 58.9068 27.95 55.5851 27.95 51.4875C27.95 47.3899 24.6283 44.0681 20.5307 44.0681C16.4331 44.0681 13.1113 47.3899 13.1113 51.4875C13.1113 55.5851 16.4331 58.9068 20.5307 58.9068Z" fill="url(#paint1_linear)"/>
<path d="M37.8548 55.2718C37.8548 57.3121 39.5242 58.9815 41.5645 58.9815C43.6048 58.9815 45.2742 57.3121 45.2742 55.2718C45.2742 39.5428 32.4758 26.7073 16.7097 26.7073C14.6694 26.7073 13 28.3766 13 30.417C13 32.4573 14.6694 34.1266 16.7097 34.1266C28.3952 34.1266 37.8548 43.6234 37.8548 55.2718Z" fill="url(#paint2_linear)"/>
<path d="M55.2903 58.9815C57.3306 58.9815 59 57.3121 59 55.2718C59 31.975 40.0436 13.0186 16.7468 13.0186C14.7065 13.0186 13.0371 14.6879 13.0371 16.7282C13.0371 18.7686 14.7065 20.4379 16.7468 20.4379C35.9629 20.4379 51.5807 36.0556 51.5807 55.2718C51.5807 57.3121 53.2129 58.9815 55.2903 58.9815Z" fill="url(#paint3_linear)"/>
<defs>
<linearGradient id="paint0_linear" x1="-1.32866e-06" y1="7.12768" x2="48.4544" y2="54.0465" gradientUnits="userSpaceOnUse">
<stop stop-color="#479E91"/>
<stop offset="1" stop-color="#3F8D81"/>
</linearGradient>
<linearGradient id="paint1_linear" x1="13.0058" y1="44.0527" x2="25.7393" y2="59.8679" gradientUnits="userSpaceOnUse">
<stop stop-color="#D6E9F5"/>
<stop offset="1" stop-color="#ADD2EB"/>
</linearGradient>
<linearGradient id="paint2_linear" x1="12.7704" y1="26.6737" x2="40.4658" y2="61.0718" gradientUnits="userSpaceOnUse">
<stop stop-color="#D6E9F5"/>
<stop offset="1" stop-color="#ADD2EB"/>
</linearGradient>
<linearGradient id="paint3_linear" x1="12.7101" y1="12.9707" x2="52.1522" y2="61.9583" gradientUnits="userSpaceOnUse">
<stop stop-color="#D6E9F5"/>
<stop offset="1" stop-color="#ADD2EB"/>
</linearGradient>
</defs>
</svg>
