<svg width="72" height="72" viewBox="0 0 72 72" fill="none" xmlns="http://www.w3.org/2000/svg">
<rect width="72" height="72" fill="url(#paint0_linear)"/>
<path d="M44.1509 21.5918V30.9006L52.2312 38.998V21.5918H44.1509Z" fill="#1B2E5B"/>
<path d="M53.2925 37.2541V62.6505H18.676V37.2541L36.0157 20.0181L53.2925 37.2541Z" fill="#FF5252"/>
<path d="M53.2924 37.2541V62.6505H36.0156V20.0181L53.2924 37.2541Z" fill="#CE3858"/>
<path d="M58.9998 41.0292L57.0946 42.9376L36.0155 21.8176L14.9364 42.9376L13.0312 41.0292L36.0155 18L58.9998 41.0292Z" fill="#E2EFF7"/>
<path d="M33.246 47.8798V56.4271H25.1655V47.8798L29.2058 44.5059L33.246 47.8798Z" fill="#FFD44A"/>
<path d="M25.1655 41.1318H33.246V47.8797H25.1655V41.1318Z" fill="#E2EFF7"/>
<path d="M46.8034 47.8798V56.4271H38.7229V47.8798L42.7632 44.5059L46.8034 47.8798Z" fill="#FFB640"/>
<path d="M38.7229 41.1318H46.8034V47.8797H38.7229V41.1318Z" fill="#C3D9EA"/>
<path d="M36.0159 36.7851C37.9993 36.7851 39.6072 35.1739 39.6072 33.1863C39.6072 31.1987 37.9993 29.5874 36.0159 29.5874C34.0325 29.5874 32.4246 31.1987 32.4246 33.1863C32.4246 35.1739 34.0325 36.7851 36.0159 36.7851Z" fill="#FFD44A"/>
<path d="M13 61.3008H59V64H13V61.3008Z" fill="#6AD3AD"/>
<path d="M36.0156 36.7851V29.5874C37.9962 29.5874 39.607 31.2024 39.607 33.1863C39.607 35.171 37.9962 36.7851 36.0156 36.7851Z" fill="#FFB640"/>
<path d="M36.0156 61.3008H58.9999V64H36.0156V61.3008Z" fill="#49B2A3"/>
<path d="M57.0948 42.9376L36.0156 21.8176V18L58.9999 41.0292L57.0948 42.9376Z" fill="#C3D9EA"/>
<defs>
<linearGradient id="paint0_linear" x1="-0.512184" y1="-0.07497" x2="61.273" y2="76.6632" gradientUnits="userSpaceOnUse">
<stop stop-color="#D6E9F5"/>
<stop offset="1" stop-color="#ADD2EB"/>
</linearGradient>
</defs>
</svg>
