<svg width="72" height="72" viewBox="0 0 72 72" fill="none" xmlns="http://www.w3.org/2000/svg">
<rect width="72" height="72" fill="url(#paint0_linear)"/>
<path d="M20.1875 14.4375H51.8125C53.4002 14.4375 54.6875 15.7248 54.6875 17.3125V56.125C54.6875 57.7127 53.4002 59 51.8125 59H20.1875C18.5998 59 17.3125 57.7127 17.3125 56.125V17.3125C17.3125 15.7248 18.5998 14.4375 20.1875 14.4375Z" fill="#E76E54"/>
<path d="M20.1875 46.6577V17.3125H51.8125V56.125H29.6548L20.1875 46.6577Z" fill="#E4EDFB"/>
<path d="M29.6548 46.6577V56.125L20.1875 46.6577H29.6548Z" fill="url(#paint1_linear)"/>
<path d="M28.8125 18.75V13H43.1875V18.75C43.1875 20.3377 41.9002 21.625 40.3125 21.625H31.6875C30.0998 21.625 28.8125 20.3377 28.8125 18.75Z" fill="url(#paint2_linear)"/>
<defs>
<linearGradient id="paint0_linear" x1="-0.512184" y1="-0.07497" x2="61.273" y2="76.6632" gradientUnits="userSpaceOnUse">
<stop stop-color="#D6E9F5"/>
<stop offset="1" stop-color="#ADD2EB"/>
</linearGradient>
<linearGradient id="paint1_linear" x1="20.1202" y1="46.6479" x2="28.2443" y2="56.7382" gradientUnits="userSpaceOnUse">
<stop stop-color="#D6E9F5"/>
<stop offset="1" stop-color="#ADD2EB"/>
</linearGradient>
<linearGradient id="paint2_linear" x1="28.7102" y1="12.991" x2="34.6449" y2="25.2758" gradientUnits="userSpaceOnUse">
<stop stop-color="#D6E9F5"/>
<stop offset="1" stop-color="#ADD2EB"/>
</linearGradient>
</defs>
</svg>
