<svg width="72" height="72" viewBox="0 0 72 72" fill="none" xmlns="http://www.w3.org/2000/svg">
<rect width="72" height="72" fill="url(#paint0_linear)"/>
<g clip-path="url(#clip0)">
<path d="M50.9506 14.3792L47.3008 18.029L49.2065 19.9347L52.8563 16.2849C53.6445 15.4967 54.9268 15.4967 55.715 16.2849L57.2767 15.9936L57.6207 14.3792C55.7817 12.5403 52.7895 12.5403 50.9506 14.3792Z" fill="#ECE6F2"/>
<path d="M51.9036 39.2809C57.1928 33.9917 57.1928 25.3856 51.9036 20.0964L30.8505 38.6085L22.5923 49.4077L32.1845 59L51.9036 39.2809Z" fill="#E76E54"/>
<path d="M32.719 20.0963L13 39.8153L22.5923 49.4076L51.9035 20.0963C46.6143 14.8071 38.0082 14.8071 32.719 20.0963Z" fill="#E76E54"/>
<path d="M32.1846 55.1885L37.9018 49.4712L30.2153 41.7847L26.0862 43.3728L24.498 47.5019L32.1846 55.1885Z" fill="url(#paint1_linear)"/>
<path d="M49.9977 37.3752C54.236 33.1369 54.236 26.2406 49.9977 22.0022L38.696 30.7629L32.1208 39.879L39.8074 47.5655L49.9977 37.3752Z" fill="#ECE6F2"/>
<path d="M57.6209 14.3792L55.7152 16.2849C56.5033 17.073 56.5033 18.3554 55.7152 19.1435L50.4744 24.3843C49.949 24.9097 49.094 24.9097 48.5687 24.3843L46.8218 22.6374L46.1865 25.8136L46.6629 26.29C48.2391 27.8662 50.8039 27.8662 52.3802 26.29L57.621 21.0492C59.4599 19.2104 59.4599 16.2181 57.6209 14.3792Z" fill="#CFCFE6"/>
<path d="M34.6249 22.0022L24.4346 32.1925L32.1211 39.8791L49.9979 22.0022C45.7595 17.764 38.8632 17.7639 34.6249 22.0022Z" fill="#FFF5F5"/>
<path d="M16.8083 39.8137L22.5247 34.0973L30.2101 41.7827L24.4937 47.4991L16.8083 39.8137Z" fill="url(#paint2_linear)"/>
<path d="M36.7095 27.4609L38.6149 25.5555L40.5204 27.4609L38.6149 29.3664L36.7095 27.4609Z" fill="#E76E54"/>
<path d="M36.708 39.302L38.6135 37.3965L40.5189 39.302L38.6135 41.2075L36.708 39.302Z" fill="#E76E54"/>
<path d="M45.4005 32.0334H39.9665L37.9837 32.7458L37.2715 34.7286H45.4005V32.0334Z" fill="#E76E54"/>
<path d="M31.8376 32.0334V34.7286H37.2716L39.9666 32.0334H31.8376Z" fill="#E76E54"/>
<path d="M34.0902 49.4712L28.3095 43.6904L26.7214 44.0081L26.4038 45.5962L32.1845 51.3769L34.0902 49.4712Z" fill="white"/>
<path d="M20.6191 39.8137L22.5246 37.9083L28.3045 43.6882L26.399 45.5936L20.6191 39.8137Z" fill="white"/>
</g>
<defs>
<linearGradient id="paint0_linear" x1="-1.32866e-06" y1="7.12768" x2="48.4544" y2="54.0465" gradientUnits="userSpaceOnUse">
<stop stop-color="#479E91"/>
<stop offset="1" stop-color="#3F8D81"/>
</linearGradient>
<linearGradient id="paint1_linear" x1="24.4027" y1="41.7707" x2="35.9048" y2="56.0566" gradientUnits="userSpaceOnUse">
<stop stop-color="#D6E9F5"/>
<stop offset="1" stop-color="#ADD2EB"/>
</linearGradient>
<linearGradient id="paint2_linear" x1="16.7597" y1="39.8464" x2="29.7058" y2="39.3337" gradientUnits="userSpaceOnUse">
<stop stop-color="#D6E9F5"/>
<stop offset="1" stop-color="#ADD2EB"/>
</linearGradient>
<clipPath id="clip0">
<rect width="46" height="46" fill="white" transform="translate(13 13)"/>
</clipPath>
</defs>
</svg>
