<svg width="72" height="72" viewBox="0 0 72 72" fill="none" xmlns="http://www.w3.org/2000/svg">
<rect width="72" height="72" fill="url(#paint0_linear)"/>
<path d="M40.1206 40.2734L47.2453 58.0181C47.2487 58.0168 47.252 58.0156 47.2555 58.0142C52.1696 56.0411 55.8651 52.3313 57.9239 47.8759L40.1206 40.2734Z" fill="#DC6A2F"/>
<path d="M28.1985 16.5819C17.9782 20.6855 13.0195 32.2973 17.1231 42.5177C21.2267 52.7381 32.8386 57.6967 43.059 53.5932L43.1008 53.5289C43.0975 53.5303 43.0941 53.5316 43.0907 53.5329L35.966 35.7882L53.7607 43.3871C55.9551 38.5908 56.2547 32.9385 54.1343 27.6574C50.0308 17.4369 38.419 12.4783 28.1985 16.5819Z" fill="#DC6A2F"/>
<path d="M35.966 35.7881L50.9969 42.2068C52.8901 38.118 53.1584 33.2878 51.347 28.7764C47.8615 20.0955 37.9987 15.8837 29.3177 19.3692C20.6367 22.8547 16.4249 32.7176 19.9104 41.3986C23.3959 50.0796 33.2588 54.2913 41.9398 50.8059C41.9558 50.7994 41.9716 50.7924 41.9877 50.7859L35.966 35.7881Z" fill="#EF8C3D"/>
<path d="M35.9661 35.7881L49.9076 41.7416L49.9185 41.7072C51.6789 37.9054 51.9283 33.4141 50.2441 29.2193C47.0031 21.1475 37.8324 17.2313 29.7606 20.4723C21.6887 23.7132 17.7726 32.8839 21.0135 40.9556C24.2544 49.0275 33.4251 52.9437 41.497 49.7027C41.512 49.6967 41.5266 49.6902 41.5415 49.6841L35.9661 35.7881Z" fill="#FFEBB4"/>
<path d="M40.1206 40.2734L46.1261 55.2308C46.1294 55.2295 46.1329 55.2283 46.1363 55.2269C50.2807 53.5629 53.405 50.4447 55.1608 46.6962L40.1206 40.2734Z" fill="#EF8C3D"/>
<path d="M40.1206 40.2734L45.712 54.1995C45.7152 54.1982 45.7183 54.1971 45.7215 54.1958C49.5801 52.6465 52.489 49.7433 54.1238 46.2533L40.1206 40.2734Z" fill="#FFEBB4"/>
<path d="M45.4666 35.8206C47.407 35.8206 48.98 34.2475 48.98 32.3071C48.98 30.3667 47.407 28.7937 45.4666 28.7937C43.5261 28.7937 41.9531 30.3667 41.9531 32.3071C41.9531 34.2475 43.5261 35.8206 45.4666 35.8206Z" fill="#E33442"/>
<path d="M45.4667 34.8783C46.8868 34.8783 48.038 33.7271 48.038 32.3071C48.038 30.887 46.8868 29.7358 45.4667 29.7358C44.0467 29.7358 42.8955 30.887 42.8955 32.3071C42.8955 33.7271 44.0467 34.8783 45.4667 34.8783Z" fill="#FD4755"/>
<path d="M25.8381 40.4871C27.7786 40.4871 29.3516 38.914 29.3516 36.9736C29.3516 35.0332 27.7786 33.4602 25.8381 33.4602C23.8977 33.4602 22.3247 35.0332 22.3247 36.9736C22.3247 38.914 23.8977 40.4871 25.8381 40.4871Z" fill="#E33442"/>
<path d="M25.8381 39.5448C27.2581 39.5448 28.4093 38.3936 28.4093 36.9736C28.4093 35.5535 27.2581 34.4023 25.8381 34.4023C24.418 34.4023 23.2668 35.5535 23.2668 36.9736C23.2668 38.3936 24.418 39.5448 25.8381 39.5448Z" fill="#FD4755"/>
<path d="M38.0906 41.0898C38.0756 41.0957 38.0604 41.1006 38.0454 41.1067C36.2446 41.8297 35.371 43.8755 36.0941 45.6763C36.8171 47.477 38.8629 48.3507 40.6636 47.6276C40.6786 47.6216 40.6931 47.6147 40.708 47.6085L38.0906 41.0898Z" fill="#E33442"/>
<path d="M38.4416 41.9641C38.4265 41.9699 38.4114 41.9749 38.3964 41.981C37.0785 42.5101 36.4392 44.0073 36.9683 45.3252C37.4974 46.643 38.9946 47.2823 40.3125 46.7532C40.3275 46.7472 40.3419 46.7404 40.3568 46.7341L38.4416 41.9641Z" fill="#FD4755"/>
<path d="M47.2754 48.6635C46.5524 46.8628 44.5065 45.9892 42.7058 46.7122L45.324 53.233C47.1247 52.51 47.9983 50.4641 47.2754 48.6635Z" fill="#E33442"/>
<path d="M46.4011 49.0145C45.872 47.6967 44.3747 47.0574 43.0569 47.5865L44.973 52.3587C46.2908 51.8296 46.9301 50.3324 46.4011 49.0145Z" fill="#FD4755"/>
<path d="M32.2212 28.9121C34.1616 28.9121 35.7346 27.3391 35.7346 25.3987C35.7346 23.4583 34.1616 21.8853 32.2212 21.8853C30.2808 21.8853 28.7078 23.4583 28.7078 25.3987C28.7078 27.3391 30.2808 28.9121 32.2212 28.9121Z" fill="#E33442"/>
<path d="M32.2211 27.9701C33.6412 27.9701 34.7924 26.8189 34.7924 25.3989C34.7924 23.9788 33.6412 22.8276 32.2211 22.8276C30.8011 22.8276 29.6499 23.9788 29.6499 25.3989C29.6499 26.8189 30.8011 27.9701 32.2211 27.9701Z" fill="#FD4755"/>
<path d="M24.888 26.8515C26.8803 27.7022 27.5838 30.5265 27.5838 30.5265C27.5838 30.5265 25.0572 31.9715 23.0649 31.1208C21.0726 30.27 20.3691 27.4457 20.3691 27.4457C20.3691 27.4457 22.8957 26.0007 24.888 26.8515Z" fill="#97D729"/>
<path d="M23.0647 31.1206C25.0569 31.9713 27.5835 30.5264 27.5835 30.5264L20.3689 27.4456C20.3689 27.4456 21.0724 30.2699 23.0647 31.1206Z" fill="#82BD1C"/>
<path d="M29.4971 42.5172C31.5075 41.71 34.002 43.2097 34.002 43.2097C34.002 43.2097 33.2371 46.018 31.2268 46.8252C29.2164 47.6323 26.7219 46.1326 26.7219 46.1326C26.7219 46.1326 27.4868 43.3243 29.4971 42.5172Z" fill="#97D729"/>
<path d="M31.2265 46.825C33.2369 46.0178 34.0017 43.2095 34.0017 43.2095L26.7217 46.1324C26.7217 46.1324 29.2162 47.6321 31.2265 46.825Z" fill="#82BD1C"/>
<path d="M40.1071 31.1199C39.2564 33.1122 36.432 33.8157 36.432 33.8157C36.432 33.8157 34.9871 31.2891 35.8378 29.2968C36.6885 27.3046 39.5129 26.6011 39.5129 26.6011C39.5129 26.6011 40.9578 29.1278 40.1071 31.1199Z" fill="#97D729"/>
<path d="M35.8378 29.2968C34.9871 31.2891 36.432 33.8157 36.432 33.8157L39.5129 26.6011C39.5129 26.6012 36.6885 27.3046 35.8378 29.2968Z" fill="#82BD1C"/>
<path d="M30.1743 39.6637C31.6635 39.6637 32.8707 38.4565 32.8707 36.9672C32.8707 35.478 31.6635 34.2708 30.1743 34.2708C28.685 34.2708 27.4778 35.478 27.4778 36.9672C27.4778 38.4565 28.685 39.6637 30.1743 39.6637Z" stroke="white" stroke-width="1.31163" stroke-miterlimit="10"/>
<path d="M42.0561 26.5092C43.5453 26.5092 44.7526 25.3019 44.7526 23.8127C44.7526 22.3235 43.5453 21.1162 42.0561 21.1162C40.5669 21.1162 39.3596 22.3235 39.3596 23.8127C39.3596 25.3019 40.5669 26.5092 42.0561 26.5092Z" stroke="white" stroke-width="1.31163" stroke-miterlimit="10"/>
<path d="M47.9203 38.8446C49.0692 38.8446 50.0006 37.9132 50.0006 36.7643C50.0006 35.6154 49.0692 34.6841 47.9203 34.6841C46.7714 34.6841 45.8401 35.6154 45.8401 36.7643C45.8401 37.9132 46.7714 38.8446 47.9203 38.8446Z" stroke="white" stroke-width="1.31163" stroke-miterlimit="10"/>
<path d="M48.871 50.1031C50.0199 50.1031 50.9513 49.1718 50.9513 48.0229C50.9513 46.874 50.0199 45.9426 48.871 45.9426C47.7221 45.9426 46.7908 46.874 46.7908 48.0229C46.7908 49.1718 47.7221 50.1031 48.871 50.1031Z" stroke="white" stroke-width="1.31163" stroke-miterlimit="10"/>
<path d="M30.7896 31.2378L32.6834 30.4766L33.4446 32.3704L31.5508 33.1317L30.7896 31.2378Z" fill="#965028"/>
<path d="M23.3933 42.5962L25.4259 41.7792L26.2429 43.8118L24.2103 44.6288L23.3933 42.5962Z" fill="#965028"/>
<path d="M43.2542 43.5791L45.1216 42.8285L45.8722 44.6959L44.0047 45.4465L43.2542 43.5791Z" fill="#965028"/>
<path d="M45.9487 26.2439L47.7335 25.5265L48.4508 27.3113L46.6661 28.0286L45.9487 26.2439Z" fill="#965028"/>
<defs>
<linearGradient id="paint0_linear" x1="-0.512184" y1="-0.07497" x2="61.273" y2="76.6632" gradientUnits="userSpaceOnUse">
<stop stop-color="#D6E9F5"/>
<stop offset="1" stop-color="#ADD2EB"/>
</linearGradient>
</defs>
</svg>
